<svg width="325" height="314" viewBox="0 0 325 314" fill="none" xmlns="http://www.w3.org/2000/svg">
<path d="M11.6651 276L8.64508 271.7C8.27175 271.727 7.97841 271.74 7.76508 271.74H4.30508V276H2.30508V262H7.76508C9.57841 262 11.0051 262.433 12.0451 263.3C13.0851 264.167 13.6051 265.36 13.6051 266.88C13.6051 267.96 13.3384 268.88 12.8051 269.64C12.2717 270.4 11.5117 270.953 10.5251 271.3L13.8451 276H11.6651ZM7.70508 270.04C8.97175 270.04 9.93841 269.767 10.6051 269.22C11.2717 268.673 11.6051 267.893 11.6051 266.88C11.6051 265.867 11.2717 265.093 10.6051 264.56C9.93841 264.013 8.97175 263.74 7.70508 263.74H4.30508V270.04H7.70508ZM26.1363 270.76C26.1363 270.907 26.123 271.1 26.0963 271.34H17.4963C17.6163 272.273 18.023 273.027 18.7163 273.6C19.423 274.16 20.2963 274.44 21.3363 274.44C22.603 274.44 23.623 274.013 24.3963 273.16L25.4563 274.4C24.9763 274.96 24.3763 275.387 23.6563 275.68C22.9497 275.973 22.1563 276.12 21.2763 276.12C20.1563 276.12 19.163 275.893 18.2963 275.44C17.4297 274.973 16.7563 274.327 16.2763 273.5C15.8097 272.673 15.5763 271.74 15.5763 270.7C15.5763 269.673 15.803 268.747 16.2563 267.92C16.723 267.093 17.3563 266.453 18.1563 266C18.9697 265.533 19.883 265.3 20.8963 265.3C21.9097 265.3 22.8097 265.533 23.5963 266C24.3963 266.453 25.0163 267.093 25.4563 267.92C25.9097 268.747 26.1363 269.693 26.1363 270.76ZM20.8963 266.92C19.9763 266.92 19.203 267.2 18.5763 267.76C17.963 268.32 17.603 269.053 17.4963 269.96H24.2963C24.1897 269.067 23.823 268.34 23.1963 267.78C22.583 267.207 21.8163 266.92 20.8963 266.92ZM32.3695 265.3C33.8361 265.3 34.9561 265.66 35.7295 266.38C36.5161 267.1 36.9095 268.173 36.9095 269.6V276H35.0895V274.6C34.7695 275.093 34.3095 275.473 33.7095 275.74C33.1228 275.993 32.4228 276.12 31.6095 276.12C30.4228 276.12 29.4695 275.833 28.7495 275.26C28.0428 274.687 27.6895 273.933 27.6895 273C27.6895 272.067 28.0295 271.32 28.7095 270.76C29.3895 270.187 30.4695 269.9 31.9495 269.9H34.9895V269.52C34.9895 268.693 34.7495 268.06 34.2695 267.62C33.7895 267.18 33.0828 266.96 32.1495 266.96C31.5228 266.96 30.9095 267.067 30.3095 267.28C29.7095 267.48 29.2028 267.753 28.7895 268.1L27.9895 266.66C28.5361 266.22 29.1895 265.887 29.9495 265.66C30.7095 265.42 31.5161 265.3 32.3695 265.3ZM31.9295 274.64C32.6628 274.64 33.2961 274.48 33.8295 274.16C34.3628 273.827 34.7495 273.36 34.9895 272.76V271.28H32.0295C30.4028 271.28 29.5895 271.827 29.5895 272.92C29.5895 273.453 29.7961 273.873 30.2095 274.18C30.6228 274.487 31.1961 274.64 31.9295 274.64ZM40.4626 261.16H42.3826V276H40.4626V261.16ZM54.4796 263.74H49.6796V262H61.2596V263.74H56.4596V276H54.4796V263.74ZM62.904 265.4H64.824V276H62.904V265.4ZM63.864 263.36C63.4907 263.36 63.1773 263.24 62.924 263C62.684 262.76 62.564 262.467 62.564 262.12C62.564 261.773 62.684 261.48 62.924 261.24C63.1773 260.987 63.4907 260.86 63.864 260.86C64.2373 260.86 64.544 260.98 64.784 261.22C65.0373 261.447 65.164 261.733 65.164 262.08C65.164 262.44 65.0373 262.747 64.784 263C64.544 263.24 64.2373 263.36 63.864 263.36ZM81.7499 265.3C83.0833 265.3 84.1366 265.687 84.9099 266.46C85.6966 267.233 86.0899 268.38 86.0899 269.9V276H84.1699V270.12C84.1699 269.093 83.9299 268.32 83.4499 267.8C82.9833 267.28 82.3099 267.02 81.4299 267.02C80.4566 267.02 79.6833 267.327 79.1099 267.94C78.5366 268.54 78.2499 269.407 78.2499 270.54V276H76.3299V270.12C76.3299 269.093 76.0899 268.32 75.6099 267.8C75.1433 267.28 74.4699 267.02 73.5899 267.02C72.6166 267.02 71.8433 267.327 71.2699 267.94C70.6966 268.54 70.4099 269.407 70.4099 270.54V276H68.4899V265.4H70.3299V266.98C70.7166 266.433 71.2233 266.02 71.8499 265.74C72.4766 265.447 73.1899 265.3 73.9899 265.3C74.8166 265.3 75.5499 265.467 76.1899 265.8C76.8299 266.133 77.3233 266.62 77.6699 267.26C78.0699 266.647 78.6233 266.167 79.3299 265.82C80.0499 265.473 80.8566 265.3 81.7499 265.3ZM99.2613 270.76C99.2613 270.907 99.248 271.1 99.2213 271.34H90.6213C90.7413 272.273 91.148 273.027 91.8413 273.6C92.548 274.16 93.4213 274.44 94.4613 274.44C95.728 274.44 96.748 274.013 97.5213 273.16L98.5813 274.4C98.1013 274.96 97.5013 275.387 96.7813 275.68C96.0747 275.973 95.2813 276.12 94.4013 276.12C93.2813 276.12 92.288 275.893 91.4213 275.44C90.5547 274.973 89.8813 274.327 89.4013 273.5C88.9347 272.673 88.7013 271.74 88.7013 270.7C88.7013 269.673 88.928 268.747 89.3813 267.92C89.848 267.093 90.4813 266.453 91.2813 266C92.0947 265.533 93.008 265.3 94.0213 265.3C95.0347 265.3 95.9347 265.533 96.7213 266C97.5213 266.453 98.1413 267.093 98.5813 267.92C99.0347 268.747 99.2613 269.693 99.2613 270.76ZM94.0213 266.92C93.1013 266.92 92.328 267.2 91.7013 267.76C91.088 268.32 90.728 269.053 90.6213 269.96H97.4213C97.3147 269.067 96.948 268.34 96.3213 267.78C95.708 267.207 94.9413 266.92 94.0213 266.92ZM116.499 272.5H109.059L107.519 276H105.459L111.799 262H113.779L120.139 276H118.039L116.499 272.5ZM115.799 270.9L112.779 264.04L109.759 270.9H115.799ZM121.947 265.4H123.867V276H121.947V265.4ZM122.907 263.36C122.534 263.36 122.22 263.24 121.967 263C121.727 262.76 121.607 262.467 121.607 262.12C121.607 261.773 121.727 261.48 121.967 261.24C122.22 260.987 122.534 260.86 122.907 260.86C123.28 260.86 123.587 260.98 123.827 261.22C124.08 261.447 124.207 261.733 124.207 262.08C124.207 262.44 124.08 262.747 123.827 263C123.587 263.24 123.28 263.36 122.907 263.36ZM129.373 267.18C129.706 266.567 130.2 266.1 130.853 265.78C131.506 265.46 132.3 265.3 133.233 265.3V267.16C133.126 267.147 132.98 267.14 132.793 267.14C131.753 267.14 130.933 267.453 130.333 268.08C129.746 268.693 129.453 269.573 129.453 270.72V276H127.533V265.4H129.373V267.18ZM155.807 277.28C155.354 277.813 154.827 278.22 154.227 278.5C153.627 278.78 152.98 278.92 152.287 278.92C151.407 278.92 150.58 278.707 149.807 278.28C149.047 277.867 148.174 277.153 147.187 276.14C145.867 276.073 144.674 275.72 143.607 275.08C142.554 274.44 141.727 273.593 141.127 272.54C140.54 271.473 140.247 270.293 140.247 269C140.247 267.653 140.567 266.433 141.207 265.34C141.86 264.247 142.754 263.393 143.887 262.78C145.02 262.153 146.294 261.84 147.707 261.84C149.107 261.84 150.374 262.153 151.507 262.78C152.64 263.393 153.527 264.247 154.167 265.34C154.807 266.42 155.127 267.64 155.127 269C155.127 270.147 154.894 271.2 154.427 272.16C153.974 273.12 153.327 273.927 152.487 274.58C151.66 275.233 150.707 275.687 149.627 275.94C150.094 276.433 150.54 276.787 150.967 277C151.407 277.227 151.854 277.34 152.307 277.34C153.294 277.34 154.147 276.94 154.867 276.14L155.807 277.28ZM142.247 269C142.247 270.013 142.48 270.933 142.947 271.76C143.427 272.573 144.08 273.213 144.907 273.68C145.747 274.147 146.68 274.38 147.707 274.38C148.72 274.38 149.64 274.147 150.467 273.68C151.294 273.213 151.94 272.573 152.407 271.76C152.887 270.933 153.127 270.013 153.127 269C153.127 267.987 152.887 267.073 152.407 266.26C151.94 265.433 151.294 264.787 150.467 264.32C149.64 263.853 148.72 263.62 147.707 263.62C146.68 263.62 145.747 263.853 144.907 264.32C144.08 264.787 143.427 265.433 142.947 266.26C142.48 267.073 142.247 267.987 142.247 269ZM167.784 265.4V276H165.964V274.4C165.577 274.947 165.064 275.373 164.424 275.68C163.797 275.973 163.111 276.12 162.364 276.12C160.951 276.12 159.837 275.733 159.024 274.96C158.211 274.173 157.804 273.02 157.804 271.5V265.4H159.724V271.28C159.724 272.307 159.971 273.087 160.464 273.62C160.957 274.14 161.664 274.4 162.584 274.4C163.597 274.4 164.397 274.093 164.984 273.48C165.571 272.867 165.864 272 165.864 270.88V265.4H167.784ZM175.299 265.3C176.766 265.3 177.886 265.66 178.659 266.38C179.446 267.1 179.839 268.173 179.839 269.6V276H178.019V274.6C177.699 275.093 177.239 275.473 176.639 275.74C176.052 275.993 175.352 276.12 174.539 276.12C173.352 276.12 172.399 275.833 171.679 275.26C170.972 274.687 170.619 273.933 170.619 273C170.619 272.067 170.959 271.32 171.639 270.76C172.319 270.187 173.399 269.9 174.879 269.9H177.919V269.52C177.919 268.693 177.679 268.06 177.199 267.62C176.719 267.18 176.012 266.96 175.079 266.96C174.452 266.96 173.839 267.067 173.239 267.28C172.639 267.48 172.132 267.753 171.719 268.1L170.919 266.66C171.466 266.22 172.119 265.887 172.879 265.66C173.639 265.42 174.446 265.3 175.299 265.3ZM174.859 274.64C175.592 274.64 176.226 274.48 176.759 274.16C177.292 273.827 177.679 273.36 177.919 272.76V271.28H174.959C173.332 271.28 172.519 271.827 172.519 272.92C172.519 273.453 172.726 273.873 173.139 274.18C173.552 274.487 174.126 274.64 174.859 274.64ZM183.392 261.16H185.312V276H183.392V261.16ZM188.978 265.4H190.898V276H188.978V265.4ZM189.938 263.36C189.565 263.36 189.252 263.24 188.998 263C188.758 262.76 188.638 262.467 188.638 262.12C188.638 261.773 188.758 261.48 188.998 261.24C189.252 260.987 189.565 260.86 189.938 260.86C190.312 260.86 190.618 260.98 190.858 261.22C191.112 261.447 191.238 261.733 191.238 262.08C191.238 262.44 191.112 262.747 190.858 263C190.618 263.24 190.312 263.36 189.938 263.36ZM200.524 275.38C200.244 275.62 199.897 275.807 199.484 275.94C199.071 276.06 198.644 276.12 198.204 276.12C197.137 276.12 196.311 275.833 195.724 275.26C195.137 274.687 194.844 273.867 194.844 272.8V266.98H193.044V265.4H194.844V263.08H196.764V265.4H199.804V266.98H196.764V272.72C196.764 273.293 196.904 273.733 197.184 274.04C197.477 274.347 197.891 274.5 198.424 274.5C199.011 274.5 199.511 274.333 199.924 274L200.524 275.38ZM212.03 265.4L206.89 277.06C206.437 278.14 205.903 278.9 205.29 279.34C204.69 279.78 203.963 280 203.11 280C202.59 280 202.083 279.913 201.59 279.74C201.11 279.58 200.71 279.34 200.39 279.02L201.21 277.58C201.757 278.1 202.39 278.36 203.11 278.36C203.577 278.36 203.963 278.233 204.27 277.98C204.59 277.74 204.877 277.32 205.13 276.72L205.47 275.98L200.79 265.4H202.79L206.49 273.88L210.15 265.4H212.03ZM219.473 262H221.473V276H219.473V262ZM231.044 265.3C232.391 265.3 233.458 265.693 234.244 266.48C235.044 267.253 235.444 268.393 235.444 269.9V276H233.524V270.12C233.524 269.093 233.278 268.32 232.784 267.8C232.291 267.28 231.584 267.02 230.664 267.02C229.624 267.02 228.804 267.327 228.204 267.94C227.604 268.54 227.304 269.407 227.304 270.54V276H225.384V265.4H227.224V267C227.611 266.453 228.131 266.033 228.784 265.74C229.451 265.447 230.204 265.3 231.044 265.3ZM249.056 261.16V276H247.216V274.32C246.79 274.907 246.25 275.353 245.596 275.66C244.943 275.967 244.223 276.12 243.436 276.12C242.41 276.12 241.49 275.893 240.676 275.44C239.863 274.987 239.223 274.353 238.756 273.54C238.303 272.713 238.076 271.767 238.076 270.7C238.076 269.633 238.303 268.693 238.756 267.88C239.223 267.067 239.863 266.433 240.676 265.98C241.49 265.527 242.41 265.3 243.436 265.3C244.196 265.3 244.896 265.447 245.536 265.74C246.176 266.02 246.71 266.44 247.136 267V261.16H249.056ZM243.596 274.44C244.263 274.44 244.87 274.287 245.416 273.98C245.963 273.66 246.39 273.22 246.696 272.66C247.003 272.087 247.156 271.433 247.156 270.7C247.156 269.967 247.003 269.32 246.696 268.76C246.39 268.187 245.963 267.747 245.416 267.44C244.87 267.133 244.263 266.98 243.596 266.98C242.916 266.98 242.303 267.133 241.756 267.44C241.223 267.747 240.796 268.187 240.476 268.76C240.17 269.32 240.016 269.967 240.016 270.7C240.016 271.433 240.17 272.087 240.476 272.66C240.796 273.22 241.223 273.66 241.756 273.98C242.303 274.287 242.916 274.44 243.596 274.44ZM262.269 270.76C262.269 270.907 262.256 271.1 262.229 271.34H253.629C253.749 272.273 254.156 273.027 254.849 273.6C255.556 274.16 256.429 274.44 257.469 274.44C258.736 274.44 259.756 274.013 260.529 273.16L261.589 274.4C261.109 274.96 260.509 275.387 259.789 275.68C259.082 275.973 258.289 276.12 257.409 276.12C256.289 276.12 255.296 275.893 254.429 275.44C253.562 274.973 252.889 274.327 252.409 273.5C251.942 272.673 251.709 271.74 251.709 270.7C251.709 269.673 251.936 268.747 252.389 267.92C252.856 267.093 253.489 266.453 254.289 266C255.102 265.533 256.016 265.3 257.029 265.3C258.042 265.3 258.942 265.533 259.729 266C260.529 266.453 261.149 267.093 261.589 267.92C262.042 268.747 262.269 269.693 262.269 270.76ZM257.029 266.92C256.109 266.92 255.336 267.2 254.709 267.76C254.096 268.32 253.736 269.053 253.629 269.96H260.429C260.322 269.067 259.956 268.34 259.329 267.78C258.716 267.207 257.949 266.92 257.029 266.92ZM271.402 276L268.342 271.94L265.242 276H263.102L267.282 270.58L263.302 265.4H265.442L268.362 269.22L271.262 265.4H273.362L269.362 270.58L273.582 276H271.402ZM278.137 279.88C277.377 278.653 276.791 277.247 276.377 275.66C275.964 274.06 275.757 272.347 275.757 270.52C275.757 268.693 275.964 266.98 276.377 265.38C276.791 263.767 277.377 262.36 278.137 261.16H279.957C279.157 262.56 278.571 264.027 278.197 265.56C277.824 267.093 277.637 268.747 277.637 270.52C277.637 272.293 277.824 273.947 278.197 275.48C278.571 277.013 279.157 278.48 279.957 279.88H278.137ZM291.616 272.5H284.176L282.636 276H280.576L286.916 262H288.896L295.256 276H293.156L291.616 272.5ZM290.916 270.9L287.896 264.04L284.876 270.9H290.916ZM311.569 277.28C311.115 277.813 310.589 278.22 309.989 278.5C309.389 278.78 308.742 278.92 308.049 278.92C307.169 278.92 306.342 278.707 305.569 278.28C304.809 277.867 303.935 277.153 302.949 276.14C301.629 276.073 300.435 275.72 299.369 275.08C298.315 274.44 297.489 273.593 296.889 272.54C296.302 271.473 296.009 270.293 296.009 269C296.009 267.653 296.329 266.433 296.969 265.34C297.622 264.247 298.515 263.393 299.649 262.78C300.782 262.153 302.055 261.84 303.469 261.84C304.869 261.84 306.135 262.153 307.269 262.78C308.402 263.393 309.289 264.247 309.929 265.34C310.569 266.42 310.889 267.64 310.889 269C310.889 270.147 310.655 271.2 310.189 272.16C309.735 273.12 309.089 273.927 308.249 274.58C307.422 275.233 306.469 275.687 305.389 275.94C305.855 276.433 306.302 276.787 306.729 277C307.169 277.227 307.615 277.34 308.069 277.34C309.055 277.34 309.909 276.94 310.629 276.14L311.569 277.28ZM298.009 269C298.009 270.013 298.242 270.933 298.709 271.76C299.189 272.573 299.842 273.213 300.669 273.68C301.509 274.147 302.442 274.38 303.469 274.38C304.482 274.38 305.402 274.147 306.229 273.68C307.055 273.213 307.702 272.573 308.169 271.76C308.649 270.933 308.889 270.013 308.889 269C308.889 267.987 308.649 267.073 308.169 266.26C307.702 265.433 307.055 264.787 306.229 264.32C305.402 263.853 304.482 263.62 303.469 263.62C302.442 263.62 301.509 263.853 300.669 264.32C299.842 264.787 299.189 265.433 298.709 266.26C298.242 267.073 298.009 267.987 298.009 269ZM313.946 262H315.946V276H313.946V262ZM318.677 279.88C319.477 278.48 320.064 277.013 320.437 275.48C320.824 273.947 321.017 272.293 321.017 270.52C321.017 268.747 320.824 267.093 320.437 265.56C320.064 264.027 319.477 262.56 318.677 261.16H320.497C321.27 262.36 321.864 263.76 322.277 265.36C322.69 266.96 322.897 268.68 322.897 270.52C322.897 272.347 322.69 274.06 322.277 275.66C321.864 277.26 321.27 278.667 320.497 279.88H318.677ZM89.6813 295.4H91.6013V306H89.6813V295.4ZM90.6413 293.36C90.268 293.36 89.9547 293.24 89.7013 293C89.4613 292.76 89.3413 292.467 89.3413 292.12C89.3413 291.773 89.4613 291.48 89.7013 291.24C89.9547 290.987 90.268 290.86 90.6413 290.86C91.0147 290.86 91.3213 290.98 91.5613 291.22C91.8147 291.447 91.9413 291.733 91.9413 292.08C91.9413 292.44 91.8147 292.747 91.5613 293C91.3213 293.24 91.0147 293.36 90.6413 293.36ZM100.927 295.3C102.274 295.3 103.341 295.693 104.127 296.48C104.927 297.253 105.327 298.393 105.327 299.9V306H103.407V300.12C103.407 299.093 103.161 298.32 102.667 297.8C102.174 297.28 101.467 297.02 100.547 297.02C99.5073 297.02 98.6873 297.327 98.0873 297.94C97.4873 298.54 97.1873 299.407 97.1873 300.54V306H95.2673V295.4H97.1073V297C97.4939 296.453 98.0139 296.033 98.6673 295.74C99.3339 295.447 100.087 295.3 100.927 295.3ZM120.212 305.38C119.932 305.62 119.585 305.807 119.172 305.94C118.758 306.06 118.332 306.12 117.892 306.12C116.825 306.12 115.998 305.833 115.412 305.26C114.825 304.687 114.532 303.867 114.532 302.8V296.98H112.732V295.4H114.532V293.08H116.452V295.4H119.492V296.98H116.452V302.72C116.452 303.293 116.592 303.733 116.872 304.04C117.165 304.347 117.578 304.5 118.112 304.5C118.698 304.5 119.198 304.333 119.612 304L120.212 305.38ZM128.193 295.3C129.54 295.3 130.606 295.693 131.393 296.48C132.193 297.253 132.593 298.393 132.593 299.9V306H130.673V300.12C130.673 299.093 130.426 298.32 129.933 297.8C129.44 297.28 128.733 297.02 127.813 297.02C126.773 297.02 125.953 297.327 125.353 297.94C124.753 298.54 124.453 299.407 124.453 300.54V306H122.533V291.16H124.453V296.9C124.853 296.393 125.373 296 126.013 295.72C126.666 295.44 127.393 295.3 128.193 295.3ZM136.146 295.4H138.066V306H136.146V295.4ZM137.106 293.36C136.733 293.36 136.42 293.24 136.166 293C135.926 292.76 135.806 292.467 135.806 292.12C135.806 291.773 135.926 291.48 136.166 291.24C136.42 290.987 136.733 290.86 137.106 290.86C137.48 290.86 137.786 290.98 138.026 291.22C138.28 291.447 138.406 291.733 138.406 292.08C138.406 292.44 138.28 292.747 138.026 293C137.786 293.24 137.48 293.36 137.106 293.36ZM144.772 306.12C143.905 306.12 143.072 306.007 142.272 305.78C141.472 305.54 140.845 305.24 140.392 304.88L141.192 303.36C141.659 303.693 142.225 303.96 142.892 304.16C143.559 304.36 144.232 304.46 144.912 304.46C146.592 304.46 147.432 303.98 147.432 303.02C147.432 302.7 147.319 302.447 147.092 302.26C146.865 302.073 146.579 301.94 146.232 301.86C145.899 301.767 145.419 301.667 144.792 301.56C143.939 301.427 143.239 301.273 142.692 301.1C142.159 300.927 141.699 300.633 141.312 300.22C140.925 299.807 140.732 299.227 140.732 298.48C140.732 297.52 141.132 296.753 141.932 296.18C142.732 295.593 143.805 295.3 145.152 295.3C145.859 295.3 146.565 295.387 147.272 295.56C147.979 295.733 148.559 295.967 149.012 296.26L148.192 297.78C147.325 297.22 146.305 296.94 145.132 296.94C144.319 296.94 143.699 297.073 143.272 297.34C142.845 297.607 142.632 297.96 142.632 298.4C142.632 298.747 142.752 299.02 142.992 299.22C143.232 299.42 143.525 299.567 143.872 299.66C144.232 299.753 144.732 299.86 145.372 299.98C146.225 300.127 146.912 300.287 147.432 300.46C147.965 300.62 148.419 300.9 148.792 301.3C149.165 301.7 149.352 302.26 149.352 302.98C149.352 303.94 148.939 304.707 148.112 305.28C147.299 305.84 146.185 306.12 144.772 306.12ZM157.123 291.16H159.043V306H157.123V291.16ZM167.249 306.12C166.195 306.12 165.249 305.887 164.409 305.42C163.569 304.953 162.909 304.313 162.429 303.5C161.962 302.673 161.729 301.74 161.729 300.7C161.729 299.66 161.962 298.733 162.429 297.92C162.909 297.093 163.569 296.453 164.409 296C165.249 295.533 166.195 295.3 167.249 295.3C168.302 295.3 169.242 295.533 170.069 296C170.909 296.453 171.562 297.093 172.029 297.92C172.509 298.733 172.749 299.66 172.749 300.7C172.749 301.74 172.509 302.673 172.029 303.5C171.562 304.313 170.909 304.953 170.069 305.42C169.242 305.887 168.302 306.12 167.249 306.12ZM167.249 304.44C167.929 304.44 168.535 304.287 169.069 303.98C169.615 303.66 170.042 303.22 170.349 302.66C170.655 302.087 170.809 301.433 170.809 300.7C170.809 299.967 170.655 299.32 170.349 298.76C170.042 298.187 169.615 297.747 169.069 297.44C168.535 297.133 167.929 296.98 167.249 296.98C166.569 296.98 165.955 297.133 165.409 297.44C164.875 297.747 164.449 298.187 164.129 298.76C163.822 299.32 163.669 299.967 163.669 300.7C163.669 301.433 163.822 302.087 164.129 302.66C164.449 303.22 164.875 303.66 165.409 303.98C165.955 304.287 166.569 304.44 167.249 304.44ZM180.024 306.12C178.944 306.12 177.977 305.887 177.124 305.42C176.284 304.953 175.624 304.313 175.144 303.5C174.664 302.673 174.424 301.74 174.424 300.7C174.424 299.66 174.664 298.733 175.144 297.92C175.624 297.093 176.284 296.453 177.124 296C177.977 295.533 178.944 295.3 180.024 295.3C180.984 295.3 181.837 295.493 182.584 295.88C183.344 296.267 183.931 296.827 184.344 297.56L182.884 298.5C182.551 297.993 182.137 297.613 181.644 297.36C181.151 297.107 180.604 296.98 180.004 296.98C179.311 296.98 178.684 297.133 178.124 297.44C177.577 297.747 177.144 298.187 176.824 298.76C176.517 299.32 176.364 299.967 176.364 300.7C176.364 301.447 176.517 302.107 176.824 302.68C177.144 303.24 177.577 303.673 178.124 303.98C178.684 304.287 179.311 304.44 180.004 304.44C180.604 304.44 181.151 304.313 181.644 304.06C182.137 303.807 182.551 303.427 182.884 302.92L184.344 303.84C183.931 304.573 183.344 305.14 182.584 305.54C181.837 305.927 180.984 306.12 180.024 306.12ZM190.69 295.3C192.156 295.3 193.276 295.66 194.05 296.38C194.836 297.1 195.23 298.173 195.23 299.6V306H193.41V304.6C193.09 305.093 192.63 305.473 192.03 305.74C191.443 305.993 190.743 306.12 189.93 306.12C188.743 306.12 187.79 305.833 187.07 305.26C186.363 304.687 186.01 303.933 186.01 303C186.01 302.067 186.35 301.32 187.03 300.76C187.71 300.187 188.79 299.9 190.27 299.9H193.31V299.52C193.31 298.693 193.07 298.06 192.59 297.62C192.11 297.18 191.403 296.96 190.47 296.96C189.843 296.96 189.23 297.067 188.63 297.28C188.03 297.48 187.523 297.753 187.11 298.1L186.31 296.66C186.856 296.22 187.51 295.887 188.27 295.66C189.03 295.42 189.836 295.3 190.69 295.3ZM190.25 304.64C190.983 304.64 191.616 304.48 192.15 304.16C192.683 303.827 193.07 303.36 193.31 302.76V301.28H190.35C188.723 301.28 187.91 301.827 187.91 302.92C187.91 303.453 188.116 303.873 188.53 304.18C188.943 304.487 189.516 304.64 190.25 304.64ZM204.743 305.38C204.463 305.62 204.116 305.807 203.703 305.94C203.29 306.06 202.863 306.12 202.423 306.12C201.356 306.12 200.53 305.833 199.943 305.26C199.356 304.687 199.063 303.867 199.063 302.8V296.98H197.263V295.4H199.063V293.08H200.983V295.4H204.023V296.98H200.983V302.72C200.983 303.293 201.123 303.733 201.403 304.04C201.696 304.347 202.11 304.5 202.643 304.5C203.23 304.5 203.73 304.333 204.143 304L204.743 305.38ZM207.064 295.4H208.984V306H207.064V295.4ZM208.024 293.36C207.651 293.36 207.337 293.24 207.084 293C206.844 292.76 206.724 292.467 206.724 292.12C206.724 291.773 206.844 291.48 207.084 291.24C207.337 290.987 207.651 290.86 208.024 290.86C208.397 290.86 208.704 290.98 208.944 291.22C209.197 291.447 209.324 291.733 209.324 292.08C209.324 292.44 209.197 292.747 208.944 293C208.704 293.24 208.397 293.36 208.024 293.36ZM217.19 306.12C216.137 306.12 215.19 305.887 214.35 305.42C213.51 304.953 212.85 304.313 212.37 303.5C211.903 302.673 211.67 301.74 211.67 300.7C211.67 299.66 211.903 298.733 212.37 297.92C212.85 297.093 213.51 296.453 214.35 296C215.19 295.533 216.137 295.3 217.19 295.3C218.243 295.3 219.183 295.533 220.01 296C220.85 296.453 221.503 297.093 221.97 297.92C222.45 298.733 222.69 299.66 222.69 300.7C222.69 301.74 222.45 302.673 221.97 303.5C221.503 304.313 220.85 304.953 220.01 305.42C219.183 305.887 218.243 306.12 217.19 306.12ZM217.19 304.44C217.87 304.44 218.477 304.287 219.01 303.98C219.557 303.66 219.983 303.22 220.29 302.66C220.597 302.087 220.75 301.433 220.75 300.7C220.75 299.967 220.597 299.32 220.29 298.76C219.983 298.187 219.557 297.747 219.01 297.44C218.477 297.133 217.87 296.98 217.19 296.98C216.51 296.98 215.897 297.133 215.35 297.44C214.817 297.747 214.39 298.187 214.07 298.76C213.763 299.32 213.61 299.967 213.61 300.7C213.61 301.433 213.763 302.087 214.07 302.66C214.39 303.22 214.817 303.66 215.35 303.98C215.897 304.287 216.51 304.44 217.19 304.44ZM231.005 295.3C232.352 295.3 233.419 295.693 234.205 296.48C235.005 297.253 235.405 298.393 235.405 299.9V306H233.485V300.12C233.485 299.093 233.239 298.32 232.745 297.8C232.252 297.28 231.545 297.02 230.625 297.02C229.585 297.02 228.765 297.327 228.165 297.94C227.565 298.54 227.265 299.407 227.265 300.54V306H225.345V295.4H227.185V297C227.572 296.453 228.092 296.033 228.745 295.74C229.412 295.447 230.165 295.3 231.005 295.3Z" fill="#373C38"/>
<path fill-rule="evenodd" clip-rule="evenodd" d="M164.184 0.0213712C196.824 0.749279 224.093 22.16 243.773 48.0881C262.715 73.0451 272.22 103.736 266.204 134.436C259.935 166.425 242.368 197.883 212.018 210.121C183.23 221.728 153.355 204.885 125.525 191.157C98.2847 177.72 68.6878 163.903 59.7157 134.992C50.0682 103.904 60.0426 70.2111 79.9929 44.4356C100.386 18.0879 130.775 -0.723665 164.184 0.0213712Z" fill="white"/>
<path d="M138.904 106.336C140.664 107.136 142.008 108.224 142.936 109.6C143.896 110.944 144.376 112.528 144.376 114.352C144.376 116.4 143.8 118.192 142.648 119.728C141.528 121.264 139.928 122.448 137.848 123.28C135.768 124.08 133.352 124.48 130.6 124.48C127.848 124.48 125.432 124.08 123.352 123.28C121.304 122.448 119.72 121.264 118.6 119.728C117.48 118.192 116.92 116.4 116.92 114.352C116.92 112.528 117.384 110.944 118.312 109.6C119.24 108.224 120.568 107.136 122.296 106.336C120.952 105.6 119.912 104.64 119.176 103.456C118.472 102.24 118.12 100.848 118.12 99.28C118.12 97.392 118.632 95.744 119.656 94.336C120.712 92.928 122.184 91.84 124.072 91.072C125.96 90.304 128.136 89.92 130.6 89.92C133.096 89.92 135.288 90.304 137.176 91.072C139.064 91.84 140.536 92.928 141.592 94.336C142.648 95.744 143.176 97.392 143.176 99.28C143.176 100.848 142.808 102.224 142.072 103.408C141.336 104.592 140.28 105.568 138.904 106.336ZM130.6 94.816C128.648 94.816 127.096 95.232 125.944 96.064C124.824 96.896 124.264 98.064 124.264 99.568C124.264 101.008 124.824 102.16 125.944 103.024C127.096 103.856 128.648 104.272 130.6 104.272C132.584 104.272 134.152 103.856 135.304 103.024C136.456 102.16 137.032 101.008 137.032 99.568C137.032 98.064 136.44 96.896 135.256 96.064C134.104 95.232 132.552 94.816 130.6 94.816ZM130.6 119.584C132.904 119.584 134.728 119.104 136.072 118.144C137.416 117.184 138.088 115.856 138.088 114.16C138.088 112.496 137.416 111.184 136.072 110.224C134.728 109.264 132.904 108.784 130.6 108.784C128.296 108.784 126.488 109.264 125.176 110.224C123.864 111.184 123.208 112.496 123.208 114.16C123.208 115.856 123.864 117.184 125.176 118.144C126.488 119.104 128.296 119.584 130.6 119.584ZM159.753 89.92C164.361 89.92 167.929 91.36 170.457 94.24C173.017 97.12 174.297 101.248 174.297 106.624C174.297 110.4 173.609 113.632 172.233 116.32C170.857 118.976 168.921 121.008 166.425 122.416C163.961 123.792 161.097 124.48 157.833 124.48C156.105 124.48 154.473 124.304 152.937 123.952C151.433 123.568 150.121 123.024 149.001 122.32L151.305 117.616C152.969 118.704 155.097 119.248 157.689 119.248C160.921 119.248 163.449 118.256 165.273 116.272C167.097 114.288 168.009 111.424 168.009 107.68V107.632C167.017 108.784 165.753 109.664 164.217 110.272C162.681 110.848 160.953 111.136 159.033 111.136C156.825 111.136 154.841 110.72 153.081 109.888C151.321 109.024 149.945 107.808 148.953 106.24C147.961 104.672 147.465 102.864 147.465 100.816C147.465 98.64 148.009 96.736 149.097 95.104C150.185 93.44 151.657 92.16 153.513 91.264C155.369 90.368 157.449 89.92 159.753 89.92ZM160.233 106.24C162.249 106.24 163.881 105.696 165.129 104.608C166.409 103.52 167.049 102.144 167.049 100.48C167.049 98.848 166.425 97.504 165.177 96.448C163.961 95.36 162.265 94.816 160.089 94.816C158.137 94.816 156.553 95.344 155.337 96.4C154.121 97.424 153.513 98.8 153.513 100.528C153.513 102.288 154.121 103.68 155.337 104.704C156.553 105.728 158.185 106.24 160.233 106.24ZM208.47 116.368H202.518V124H196.47V116.368H178.038V112.048L194.598 90.4H201.27L185.67 111.088H196.662V104.32H202.518V111.088H208.47V116.368Z" fill="#0B6D62"/>
</svg>
