<svg width="281" height="344" viewBox="0 0 281 344" fill="none" xmlns="http://www.w3.org/2000/svg">
<path d="M31.8909 304.26V306H21.7309V292H31.6109V293.74H23.7309V298.04H30.7509V299.74H23.7309V304.26H31.8909ZM40.5093 295.3C41.856 295.3 42.9226 295.693 43.7093 296.48C44.5093 297.253 44.9093 298.393 44.9093 299.9V306H42.9893V300.12C42.9893 299.093 42.7426 298.32 42.2493 297.8C41.756 297.28 41.0493 297.02 40.1293 297.02C39.0893 297.02 38.2693 297.327 37.6693 297.94C37.0693 298.54 36.7693 299.407 36.7693 300.54V306H34.8493V295.4H36.6893V297C37.076 296.453 37.596 296.033 38.2493 295.74C38.916 295.447 39.6693 295.3 40.5093 295.3ZM54.4226 305.38C54.1426 305.62 53.7959 305.807 53.3826 305.94C52.9692 306.06 52.5426 306.12 52.1026 306.12C51.0359 306.12 50.2092 305.833 49.6226 305.26C49.0359 304.687 48.7426 303.867 48.7426 302.8V296.98H46.9426V295.4H48.7426V293.08H50.6626V295.4H53.7026V296.98H50.6626V302.72C50.6626 303.293 50.8026 303.733 51.0826 304.04C51.3759 304.347 51.7892 304.5 52.3226 304.5C52.9092 304.5 53.4092 304.333 53.8226 304L54.4226 305.38ZM65.9723 300.76C65.9723 300.907 65.9589 301.1 65.9323 301.34H57.3323C57.4523 302.273 57.8589 303.027 58.5523 303.6C59.2589 304.16 60.1323 304.44 61.1723 304.44C62.4389 304.44 63.4589 304.013 64.2323 303.16L65.2923 304.4C64.8123 304.96 64.2123 305.387 63.4923 305.68C62.7856 305.973 61.9923 306.12 61.1123 306.12C59.9923 306.12 58.9989 305.893 58.1323 305.44C57.2656 304.973 56.5923 304.327 56.1123 303.5C55.6456 302.673 55.4123 301.74 55.4123 300.7C55.4123 299.673 55.6389 298.747 56.0923 297.92C56.5589 297.093 57.1923 296.453 57.9923 296C58.8056 295.533 59.7189 295.3 60.7323 295.3C61.7456 295.3 62.6456 295.533 63.4323 296C64.2323 296.453 64.8523 297.093 65.2923 297.92C65.7456 298.747 65.9723 299.693 65.9723 300.76ZM60.7323 296.92C59.8123 296.92 59.0389 297.2 58.4123 297.76C57.7989 298.32 57.4389 299.053 57.3323 299.96H64.1323C64.0256 299.067 63.6589 298.34 63.0323 297.78C62.4189 297.207 61.6523 296.92 60.7323 296.92ZM70.4784 297.18C70.8117 296.567 71.305 296.1 71.9584 295.78C72.6117 295.46 73.405 295.3 74.3384 295.3V297.16C74.2317 297.147 74.085 297.14 73.8984 297.14C72.8584 297.14 72.0384 297.453 71.4384 298.08C70.8517 298.693 70.5584 299.573 70.5584 300.72V306H68.6384V295.4H70.4784V297.18ZM82.4926 292H84.4926V304.26H92.0726V306H82.4926V292ZM98.4909 306.12C97.4375 306.12 96.4909 305.887 95.6509 305.42C94.8109 304.953 94.1509 304.313 93.6709 303.5C93.2042 302.673 92.9709 301.74 92.9709 300.7C92.9709 299.66 93.2042 298.733 93.6709 297.92C94.1509 297.093 94.8109 296.453 95.6509 296C96.4909 295.533 97.4375 295.3 98.4909 295.3C99.5442 295.3 100.484 295.533 101.311 296C102.151 296.453 102.804 297.093 103.271 297.92C103.751 298.733 103.991 299.66 103.991 300.7C103.991 301.74 103.751 302.673 103.271 303.5C102.804 304.313 102.151 304.953 101.311 305.42C100.484 305.887 99.5442 306.12 98.4909 306.12ZM98.4909 304.44C99.1709 304.44 99.7775 304.287 100.311 303.98C100.858 303.66 101.284 303.22 101.591 302.66C101.898 302.087 102.051 301.433 102.051 300.7C102.051 299.967 101.898 299.32 101.591 298.76C101.284 298.187 100.858 297.747 100.311 297.44C99.7775 297.133 99.1709 296.98 98.4909 296.98C97.8109 296.98 97.1975 297.133 96.6509 297.44C96.1175 297.747 95.6909 298.187 95.3709 298.76C95.0642 299.32 94.9109 299.967 94.9109 300.7C94.9109 301.433 95.0642 302.087 95.3709 302.66C95.6909 303.22 96.1175 303.66 96.6509 303.98C97.1975 304.287 97.8109 304.44 98.4909 304.44ZM111.266 306.12C110.186 306.12 109.22 305.887 108.366 305.42C107.526 304.953 106.866 304.313 106.386 303.5C105.906 302.673 105.666 301.74 105.666 300.7C105.666 299.66 105.906 298.733 106.386 297.92C106.866 297.093 107.526 296.453 108.366 296C109.22 295.533 110.186 295.3 111.266 295.3C112.226 295.3 113.08 295.493 113.826 295.88C114.586 296.267 115.173 296.827 115.586 297.56L114.126 298.5C113.793 297.993 113.38 297.613 112.886 297.36C112.393 297.107 111.846 296.98 111.246 296.98C110.553 296.98 109.926 297.133 109.366 297.44C108.82 297.747 108.386 298.187 108.066 298.76C107.76 299.32 107.606 299.967 107.606 300.7C107.606 301.447 107.76 302.107 108.066 302.68C108.386 303.24 108.82 303.673 109.366 303.98C109.926 304.287 110.553 304.44 111.246 304.44C111.846 304.44 112.393 304.313 112.886 304.06C113.38 303.807 113.793 303.427 114.126 302.92L115.586 303.84C115.173 304.573 114.586 305.14 113.826 305.54C113.08 305.927 112.226 306.12 111.266 306.12ZM121.932 295.3C123.399 295.3 124.519 295.66 125.292 296.38C126.079 297.1 126.472 298.173 126.472 299.6V306H124.652V304.6C124.332 305.093 123.872 305.473 123.272 305.74C122.685 305.993 121.985 306.12 121.172 306.12C119.985 306.12 119.032 305.833 118.312 305.26C117.605 304.687 117.252 303.933 117.252 303C117.252 302.067 117.592 301.32 118.272 300.76C118.952 300.187 120.032 299.9 121.512 299.9H124.552V299.52C124.552 298.693 124.312 298.06 123.832 297.62C123.352 297.18 122.645 296.96 121.712 296.96C121.085 296.96 120.472 297.067 119.872 297.28C119.272 297.48 118.765 297.753 118.352 298.1L117.552 296.66C118.099 296.22 118.752 295.887 119.512 295.66C120.272 295.42 121.079 295.3 121.932 295.3ZM121.492 304.64C122.225 304.64 122.859 304.48 123.392 304.16C123.925 303.827 124.312 303.36 124.552 302.76V301.28H121.592C119.965 301.28 119.152 301.827 119.152 302.92C119.152 303.453 119.359 303.873 119.772 304.18C120.185 304.487 120.759 304.64 121.492 304.64ZM135.985 305.38C135.705 305.62 135.358 305.807 134.945 305.94C134.532 306.06 134.105 306.12 133.665 306.12C132.598 306.12 131.772 305.833 131.185 305.26C130.598 304.687 130.305 303.867 130.305 302.8V296.98H128.505V295.4H130.305V293.08H132.225V295.4H135.265V296.98H132.225V302.72C132.225 303.293 132.365 303.733 132.645 304.04C132.938 304.347 133.352 304.5 133.885 304.5C134.472 304.5 134.972 304.333 135.385 304L135.985 305.38ZM138.306 295.4H140.226V306H138.306V295.4ZM139.266 293.36C138.893 293.36 138.58 293.24 138.326 293C138.086 292.76 137.966 292.467 137.966 292.12C137.966 291.773 138.086 291.48 138.326 291.24C138.58 290.987 138.893 290.86 139.266 290.86C139.64 290.86 139.946 290.98 140.186 291.22C140.44 291.447 140.566 291.733 140.566 292.08C140.566 292.44 140.44 292.747 140.186 293C139.946 293.24 139.64 293.36 139.266 293.36ZM148.432 306.12C147.379 306.12 146.432 305.887 145.592 305.42C144.752 304.953 144.092 304.313 143.612 303.5C143.146 302.673 142.912 301.74 142.912 300.7C142.912 299.66 143.146 298.733 143.612 297.92C144.092 297.093 144.752 296.453 145.592 296C146.432 295.533 147.379 295.3 148.432 295.3C149.486 295.3 150.426 295.533 151.252 296C152.092 296.453 152.746 297.093 153.212 297.92C153.692 298.733 153.932 299.66 153.932 300.7C153.932 301.74 153.692 302.673 153.212 303.5C152.746 304.313 152.092 304.953 151.252 305.42C150.426 305.887 149.486 306.12 148.432 306.12ZM148.432 304.44C149.112 304.44 149.719 304.287 150.252 303.98C150.799 303.66 151.226 303.22 151.532 302.66C151.839 302.087 151.992 301.433 151.992 300.7C151.992 299.967 151.839 299.32 151.532 298.76C151.226 298.187 150.799 297.747 150.252 297.44C149.719 297.133 149.112 296.98 148.432 296.98C147.752 296.98 147.139 297.133 146.592 297.44C146.059 297.747 145.632 298.187 145.312 298.76C145.006 299.32 144.852 299.967 144.852 300.7C144.852 301.433 145.006 302.087 145.312 302.66C145.632 303.22 146.059 303.66 146.592 303.98C147.139 304.287 147.752 304.44 148.432 304.44ZM162.248 295.3C163.594 295.3 164.661 295.693 165.448 296.48C166.248 297.253 166.648 298.393 166.648 299.9V306H164.728V300.12C164.728 299.093 164.481 298.32 163.988 297.8C163.494 297.28 162.788 297.02 161.868 297.02C160.828 297.02 160.008 297.327 159.408 297.94C158.808 298.54 158.508 299.407 158.508 300.54V306H156.588V295.4H158.428V297C158.814 296.453 159.334 296.033 159.988 295.74C160.654 295.447 161.408 295.3 162.248 295.3ZM181.532 305.38C181.252 305.62 180.905 305.807 180.492 305.94C180.079 306.06 179.652 306.12 179.212 306.12C178.145 306.12 177.319 305.833 176.732 305.26C176.145 304.687 175.852 303.867 175.852 302.8V296.98H174.052V295.4H175.852V293.08H177.772V295.4H180.812V296.98H177.772V302.72C177.772 303.293 177.912 303.733 178.192 304.04C178.485 304.347 178.899 304.5 179.432 304.5C180.019 304.5 180.519 304.333 180.932 304L181.532 305.38ZM188.042 306.12C186.988 306.12 186.042 305.887 185.202 305.42C184.362 304.953 183.702 304.313 183.222 303.5C182.755 302.673 182.522 301.74 182.522 300.7C182.522 299.66 182.755 298.733 183.222 297.92C183.702 297.093 184.362 296.453 185.202 296C186.042 295.533 186.988 295.3 188.042 295.3C189.095 295.3 190.035 295.533 190.862 296C191.702 296.453 192.355 297.093 192.822 297.92C193.302 298.733 193.542 299.66 193.542 300.7C193.542 301.74 193.302 302.673 192.822 303.5C192.355 304.313 191.702 304.953 190.862 305.42C190.035 305.887 189.095 306.12 188.042 306.12ZM188.042 304.44C188.722 304.44 189.328 304.287 189.862 303.98C190.408 303.66 190.835 303.22 191.142 302.66C191.448 302.087 191.602 301.433 191.602 300.7C191.602 299.967 191.448 299.32 191.142 298.76C190.835 298.187 190.408 297.747 189.862 297.44C189.328 297.133 188.722 296.98 188.042 296.98C187.362 296.98 186.748 297.133 186.202 297.44C185.668 297.747 185.242 298.187 184.922 298.76C184.615 299.32 184.462 299.967 184.462 300.7C184.462 301.433 184.615 302.087 184.922 302.66C185.242 303.22 185.668 303.66 186.202 303.98C186.748 304.287 187.362 304.44 188.042 304.44ZM205.688 301.06L203.488 303.1V306H201.568V291.16H203.488V300.68L209.268 295.4H211.588L207.128 299.78L212.028 306H209.668L205.688 301.06ZM219.416 295.3C220.762 295.3 221.829 295.693 222.616 296.48C223.416 297.253 223.816 298.393 223.816 299.9V306H221.896V300.12C221.896 299.093 221.649 298.32 221.156 297.8C220.662 297.28 219.956 297.02 219.036 297.02C217.996 297.02 217.176 297.327 216.576 297.94C215.976 298.54 215.676 299.407 215.676 300.54V306H213.756V295.4H215.596V297C215.982 296.453 216.502 296.033 217.156 295.74C217.822 295.447 218.576 295.3 219.416 295.3ZM231.967 306.12C230.914 306.12 229.967 305.887 229.127 305.42C228.287 304.953 227.627 304.313 227.147 303.5C226.681 302.673 226.447 301.74 226.447 300.7C226.447 299.66 226.681 298.733 227.147 297.92C227.627 297.093 228.287 296.453 229.127 296C229.967 295.533 230.914 295.3 231.967 295.3C233.021 295.3 233.961 295.533 234.787 296C235.627 296.453 236.281 297.093 236.747 297.92C237.227 298.733 237.467 299.66 237.467 300.7C237.467 301.74 237.227 302.673 236.747 303.5C236.281 304.313 235.627 304.953 234.787 305.42C233.961 305.887 233.021 306.12 231.967 306.12ZM231.967 304.44C232.647 304.44 233.254 304.287 233.787 303.98C234.334 303.66 234.761 303.22 235.067 302.66C235.374 302.087 235.527 301.433 235.527 300.7C235.527 299.967 235.374 299.32 235.067 298.76C234.761 298.187 234.334 297.747 233.787 297.44C233.254 297.133 232.647 296.98 231.967 296.98C231.287 296.98 230.674 297.133 230.127 297.44C229.594 297.747 229.167 298.187 228.847 298.76C228.541 299.32 228.387 299.967 228.387 300.7C228.387 301.433 228.541 302.087 228.847 302.66C229.167 303.22 229.594 303.66 230.127 303.98C230.674 304.287 231.287 304.44 231.967 304.44ZM255.87 295.4L251.91 306H250.07L247.01 297.96L243.91 306H242.07L238.13 295.4H239.95L243.03 303.84L246.23 295.4H247.85L250.99 303.88L254.15 295.4H255.87ZM5.0968 323.74H0.296797V322H11.8768V323.74H7.0768V336H5.0968V323.74ZM13.5212 325.4H15.4412V336H13.5212V325.4ZM14.4812 323.36C14.1078 323.36 13.7945 323.24 13.5412 323C13.3012 322.76 13.1812 322.467 13.1812 322.12C13.1812 321.773 13.3012 321.48 13.5412 321.24C13.7945 320.987 14.1078 320.86 14.4812 320.86C14.8545 320.86 15.1612 320.98 15.4012 321.22C15.6545 321.447 15.7812 321.733 15.7812 322.08C15.7812 322.44 15.6545 322.747 15.4012 323C15.1612 323.24 14.8545 323.36 14.4812 323.36ZM32.3671 325.3C33.7004 325.3 34.7538 325.687 35.5271 326.46C36.3138 327.233 36.7071 328.38 36.7071 329.9V336H34.7871V330.12C34.7871 329.093 34.5471 328.32 34.0671 327.8C33.6004 327.28 32.9271 327.02 32.0471 327.02C31.0738 327.02 30.3004 327.327 29.7271 327.94C29.1538 328.54 28.8671 329.407 28.8671 330.54V336H26.9471V330.12C26.9471 329.093 26.7071 328.32 26.2271 327.8C25.7604 327.28 25.0871 327.02 24.2071 327.02C23.2338 327.02 22.4604 327.327 21.8871 327.94C21.3138 328.54 21.0271 329.407 21.0271 330.54V336H19.1071V325.4H20.9471V326.98C21.3338 326.433 21.8404 326.02 22.4671 325.74C23.0938 325.447 23.8071 325.3 24.6071 325.3C25.4338 325.3 26.1671 325.467 26.8071 325.8C27.4471 326.133 27.9404 326.62 28.2871 327.26C28.6871 326.647 29.2404 326.167 29.9471 325.82C30.6671 325.473 31.4738 325.3 32.3671 325.3ZM49.8785 330.76C49.8785 330.907 49.8652 331.1 49.8385 331.34H41.2385C41.3585 332.273 41.7652 333.027 42.4585 333.6C43.1652 334.16 44.0385 334.44 45.0785 334.44C46.3452 334.44 47.3652 334.013 48.1385 333.16L49.1985 334.4C48.7185 334.96 48.1185 335.387 47.3985 335.68C46.6918 335.973 45.8985 336.12 45.0185 336.12C43.8985 336.12 42.9052 335.893 42.0385 335.44C41.1718 334.973 40.4985 334.327 40.0185 333.5C39.5518 332.673 39.3185 331.74 39.3185 330.7C39.3185 329.673 39.5452 328.747 39.9985 327.92C40.4652 327.093 41.0985 326.453 41.8985 326C42.7118 325.533 43.6252 325.3 44.6385 325.3C45.6518 325.3 46.5518 325.533 47.3385 326C48.1385 326.453 48.7585 327.093 49.1985 327.92C49.6518 328.747 49.8785 329.693 49.8785 330.76ZM44.6385 326.92C43.7185 326.92 42.9452 327.2 42.3185 327.76C41.7052 328.32 41.3452 329.053 41.2385 329.96H48.0385C47.9318 329.067 47.5652 328.34 46.9385 327.78C46.3252 327.207 45.5585 326.92 44.6385 326.92ZM67.1157 332.5H59.6757L58.1357 336H56.0757L62.4157 322H64.3957L70.7557 336H68.6557L67.1157 332.5ZM66.4157 330.9L63.3957 324.04L60.3757 330.9H66.4157ZM72.5641 325.4H74.4841V336H72.5641V325.4ZM73.5241 323.36C73.1508 323.36 72.8375 323.24 72.5841 323C72.3441 322.76 72.2241 322.467 72.2241 322.12C72.2241 321.773 72.3441 321.48 72.5841 321.24C72.8375 320.987 73.1508 320.86 73.5241 320.86C73.8975 320.86 74.2041 320.98 74.4441 321.22C74.6975 321.447 74.8241 321.733 74.8241 322.08C74.8241 322.44 74.6975 322.747 74.4441 323C74.2041 323.24 73.8975 323.36 73.5241 323.36ZM79.9901 327.18C80.3234 326.567 80.8167 326.1 81.4701 325.78C82.1234 325.46 82.9167 325.3 83.8501 325.3V327.16C83.7434 327.147 83.5967 327.14 83.4101 327.14C82.3701 327.14 81.5501 327.453 80.9501 328.08C80.3634 328.693 80.0701 329.573 80.0701 330.72V336H78.1501V325.4H79.9901V327.18ZM106.424 337.28C105.971 337.813 105.444 338.22 104.844 338.5C104.244 338.78 103.598 338.92 102.904 338.92C102.024 338.92 101.198 338.707 100.424 338.28C99.6643 337.867 98.791 337.153 97.8043 336.14C96.4843 336.073 95.291 335.72 94.2243 335.08C93.171 334.44 92.3443 333.593 91.7443 332.54C91.1576 331.473 90.8643 330.293 90.8643 329C90.8643 327.653 91.1843 326.433 91.8243 325.34C92.4776 324.247 93.371 323.393 94.5043 322.78C95.6376 322.153 96.911 321.84 98.3243 321.84C99.7243 321.84 100.991 322.153 102.124 322.78C103.258 323.393 104.144 324.247 104.784 325.34C105.424 326.42 105.744 327.64 105.744 329C105.744 330.147 105.511 331.2 105.044 332.16C104.591 333.12 103.944 333.927 103.104 334.58C102.278 335.233 101.324 335.687 100.244 335.94C100.711 336.433 101.158 336.787 101.584 337C102.024 337.227 102.471 337.34 102.924 337.34C103.911 337.34 104.764 336.94 105.484 336.14L106.424 337.28ZM92.8643 329C92.8643 330.013 93.0976 330.933 93.5643 331.76C94.0443 332.573 94.6976 333.213 95.5243 333.68C96.3643 334.147 97.2976 334.38 98.3243 334.38C99.3376 334.38 100.258 334.147 101.084 333.68C101.911 333.213 102.558 332.573 103.024 331.76C103.504 330.933 103.744 330.013 103.744 329C103.744 327.987 103.504 327.073 103.024 326.26C102.558 325.433 101.911 324.787 101.084 324.32C100.258 323.853 99.3376 323.62 98.3243 323.62C97.2976 323.62 96.3643 323.853 95.5243 324.32C94.6976 324.787 94.0443 325.433 93.5643 326.26C93.0976 327.073 92.8643 327.987 92.8643 329ZM118.401 325.4V336H116.581V334.4C116.195 334.947 115.681 335.373 115.041 335.68C114.415 335.973 113.728 336.12 112.981 336.12C111.568 336.12 110.455 335.733 109.641 334.96C108.828 334.173 108.421 333.02 108.421 331.5V325.4H110.341V331.28C110.341 332.307 110.588 333.087 111.081 333.62C111.575 334.14 112.281 334.4 113.201 334.4C114.215 334.4 115.015 334.093 115.601 333.48C116.188 332.867 116.481 332 116.481 330.88V325.4H118.401ZM125.916 325.3C127.383 325.3 128.503 325.66 129.276 326.38C130.063 327.1 130.456 328.173 130.456 329.6V336H128.636V334.6C128.316 335.093 127.856 335.473 127.256 335.74C126.67 335.993 125.97 336.12 125.156 336.12C123.97 336.12 123.016 335.833 122.296 335.26C121.59 334.687 121.236 333.933 121.236 333C121.236 332.067 121.576 331.32 122.256 330.76C122.936 330.187 124.016 329.9 125.496 329.9H128.536V329.52C128.536 328.693 128.296 328.06 127.816 327.62C127.336 327.18 126.63 326.96 125.696 326.96C125.07 326.96 124.456 327.067 123.856 327.28C123.256 327.48 122.75 327.753 122.336 328.1L121.536 326.66C122.083 326.22 122.736 325.887 123.496 325.66C124.256 325.42 125.063 325.3 125.916 325.3ZM125.476 334.64C126.21 334.64 126.843 334.48 127.376 334.16C127.91 333.827 128.296 333.36 128.536 332.76V331.28H125.576C123.95 331.28 123.136 331.827 123.136 332.92C123.136 333.453 123.343 333.873 123.756 334.18C124.17 334.487 124.743 334.64 125.476 334.64ZM134.009 321.16H135.929V336H134.009V321.16ZM139.595 325.4H141.515V336H139.595V325.4ZM140.555 323.36C140.182 323.36 139.869 323.24 139.615 323C139.375 322.76 139.255 322.467 139.255 322.12C139.255 321.773 139.375 321.48 139.615 321.24C139.869 320.987 140.182 320.86 140.555 320.86C140.929 320.86 141.235 320.98 141.475 321.22C141.729 321.447 141.855 321.733 141.855 322.08C141.855 322.44 141.729 322.747 141.475 323C141.235 323.24 140.929 323.36 140.555 323.36ZM151.141 335.38C150.861 335.62 150.515 335.807 150.101 335.94C149.688 336.06 149.261 336.12 148.821 336.12C147.755 336.12 146.928 335.833 146.341 335.26C145.755 334.687 145.461 333.867 145.461 332.8V326.98H143.661V325.4H145.461V323.08H147.381V325.4H150.421V326.98H147.381V332.72C147.381 333.293 147.521 333.733 147.801 334.04C148.095 334.347 148.508 334.5 149.041 334.5C149.628 334.5 150.128 334.333 150.541 334L151.141 335.38ZM162.647 325.4L157.507 337.06C157.054 338.14 156.521 338.9 155.907 339.34C155.307 339.78 154.581 340 153.727 340C153.207 340 152.701 339.913 152.207 339.74C151.727 339.58 151.327 339.34 151.007 339.02L151.827 337.58C152.374 338.1 153.007 338.36 153.727 338.36C154.194 338.36 154.581 338.233 154.887 337.98C155.207 337.74 155.494 337.32 155.747 336.72L156.087 335.98L151.407 325.4H153.407L157.107 333.88L160.767 325.4H162.647ZM170.09 322H172.09V336H170.09V322ZM181.662 325.3C183.008 325.3 184.075 325.693 184.862 326.48C185.662 327.253 186.062 328.393 186.062 329.9V336H184.142V330.12C184.142 329.093 183.895 328.32 183.402 327.8C182.908 327.28 182.202 327.02 181.282 327.02C180.242 327.02 179.422 327.327 178.822 327.94C178.222 328.54 177.922 329.407 177.922 330.54V336H176.002V325.4H177.842V327C178.228 326.453 178.748 326.033 179.402 325.74C180.068 325.447 180.822 325.3 181.662 325.3ZM199.674 321.16V336H197.834V334.32C197.407 334.907 196.867 335.353 196.214 335.66C195.56 335.967 194.84 336.12 194.054 336.12C193.027 336.12 192.107 335.893 191.294 335.44C190.48 334.987 189.84 334.353 189.374 333.54C188.92 332.713 188.694 331.767 188.694 330.7C188.694 329.633 188.92 328.693 189.374 327.88C189.84 327.067 190.48 326.433 191.294 325.98C192.107 325.527 193.027 325.3 194.054 325.3C194.814 325.3 195.514 325.447 196.154 325.74C196.794 326.02 197.327 326.44 197.754 327V321.16H199.674ZM194.214 334.44C194.88 334.44 195.487 334.287 196.034 333.98C196.58 333.66 197.007 333.22 197.314 332.66C197.62 332.087 197.774 331.433 197.774 330.7C197.774 329.967 197.62 329.32 197.314 328.76C197.007 328.187 196.58 327.747 196.034 327.44C195.487 327.133 194.88 326.98 194.214 326.98C193.534 326.98 192.92 327.133 192.374 327.44C191.84 327.747 191.414 328.187 191.094 328.76C190.787 329.32 190.634 329.967 190.634 330.7C190.634 331.433 190.787 332.087 191.094 332.66C191.414 333.22 191.84 333.66 192.374 333.98C192.92 334.287 193.534 334.44 194.214 334.44ZM212.886 330.76C212.886 330.907 212.873 331.1 212.846 331.34H204.246C204.366 332.273 204.773 333.027 205.466 333.6C206.173 334.16 207.046 334.44 208.086 334.44C209.353 334.44 210.373 334.013 211.146 333.16L212.206 334.4C211.726 334.96 211.126 335.387 210.406 335.68C209.7 335.973 208.906 336.12 208.026 336.12C206.906 336.12 205.913 335.893 205.046 335.44C204.18 334.973 203.506 334.327 203.026 333.5C202.56 332.673 202.326 331.74 202.326 330.7C202.326 329.673 202.553 328.747 203.006 327.92C203.473 327.093 204.106 326.453 204.906 326C205.72 325.533 206.633 325.3 207.646 325.3C208.66 325.3 209.56 325.533 210.346 326C211.146 326.453 211.766 327.093 212.206 327.92C212.66 328.747 212.886 329.693 212.886 330.76ZM207.646 326.92C206.726 326.92 205.953 327.2 205.326 327.76C204.713 328.32 204.353 329.053 204.246 329.96H211.046C210.94 329.067 210.573 328.34 209.946 327.78C209.333 327.207 208.566 326.92 207.646 326.92ZM222.019 336L218.959 331.94L215.859 336H213.719L217.899 330.58L213.919 325.4H216.059L218.979 329.22L221.879 325.4H223.979L219.979 330.58L224.199 336H222.019ZM234.126 339.88C233.366 338.653 232.779 337.247 232.366 335.66C231.952 334.06 231.746 332.347 231.746 330.52C231.746 328.693 231.952 326.98 232.366 325.38C232.779 323.767 233.366 322.36 234.126 321.16H235.946C235.146 322.56 234.559 324.027 234.186 325.56C233.812 327.093 233.626 328.747 233.626 330.52C233.626 332.293 233.812 333.947 234.186 335.48C234.559 337.013 235.146 338.48 235.946 339.88H234.126ZM247.604 332.5H240.164L238.624 336H236.564L242.904 322H244.884L251.244 336H249.144L247.604 332.5ZM246.904 330.9L243.884 324.04L240.864 330.9H246.904ZM267.557 337.28C267.104 337.813 266.577 338.22 265.977 338.5C265.377 338.78 264.73 338.92 264.037 338.92C263.157 338.92 262.33 338.707 261.557 338.28C260.797 337.867 259.924 337.153 258.937 336.14C257.617 336.073 256.424 335.72 255.357 335.08C254.304 334.44 253.477 333.593 252.877 332.54C252.29 331.473 251.997 330.293 251.997 329C251.997 327.653 252.317 326.433 252.957 325.34C253.61 324.247 254.504 323.393 255.637 322.78C256.77 322.153 258.044 321.84 259.457 321.84C260.857 321.84 262.124 322.153 263.257 322.78C264.39 323.393 265.277 324.247 265.917 325.34C266.557 326.42 266.877 327.64 266.877 329C266.877 330.147 266.644 331.2 266.177 332.16C265.724 333.12 265.077 333.927 264.237 334.58C263.41 335.233 262.457 335.687 261.377 335.94C261.844 336.433 262.29 336.787 262.717 337C263.157 337.227 263.604 337.34 264.057 337.34C265.044 337.34 265.897 336.94 266.617 336.14L267.557 337.28ZM253.997 329C253.997 330.013 254.23 330.933 254.697 331.76C255.177 332.573 255.83 333.213 256.657 333.68C257.497 334.147 258.43 334.38 259.457 334.38C260.47 334.38 261.39 334.147 262.217 333.68C263.044 333.213 263.69 332.573 264.157 331.76C264.637 330.933 264.877 330.013 264.877 329C264.877 327.987 264.637 327.073 264.157 326.26C263.69 325.433 263.044 324.787 262.217 324.32C261.39 323.853 260.47 323.62 259.457 323.62C258.43 323.62 257.497 323.853 256.657 324.32C255.83 324.787 255.177 325.433 254.697 326.26C254.23 327.073 253.997 327.987 253.997 329ZM269.934 322H271.934V336H269.934V322ZM274.665 339.88C275.465 338.48 276.052 337.013 276.425 335.48C276.812 333.947 277.005 332.293 277.005 330.52C277.005 328.747 276.812 327.093 276.425 325.56C276.052 324.027 275.465 322.56 274.665 321.16H276.485C277.259 322.36 277.852 323.76 278.265 325.36C278.679 326.96 278.885 328.68 278.885 330.52C278.885 332.347 278.679 334.06 278.265 335.66C277.852 337.26 277.259 338.667 276.485 339.88H274.665Z" fill="#373C38"/>
<path d="M66.8337 181.672H19.6924V243.926H66.8337V181.672Z" fill="#E0E0E0"/>
<path d="M66.8337 181.672H44.7312V243.926H66.8337V181.672Z" fill="#F0F0F0"/>
<path d="M33.8126 190.103H29.5747V200.41H33.8126V190.103Z" fill="#F5F5F5"/>
<path d="M33.8126 230.45H29.5747V240.757H33.8126V230.45Z" fill="#F5F5F5"/>
<path d="M44.7312 204.455C44.7312 204.548 39.1238 204.616 32.2149 204.616C25.3059 204.616 19.6924 204.548 19.6924 204.455C19.6924 204.363 25.2936 204.295 32.2149 204.295C39.1362 204.295 44.7312 204.369 44.7312 204.455Z" fill="white"/>
<path d="M33.8126 210.427H29.5747V220.735H33.8126V210.427Z" fill="#F5F5F5"/>
<path d="M44.7312 224.786C44.7312 224.873 39.1238 224.947 32.2149 224.947C25.3059 224.947 19.6924 224.873 19.6924 224.786C19.6924 224.7 25.2936 224.626 32.2149 224.626C39.1362 224.626 44.7312 224.7 44.7312 224.786Z" fill="white"/>
<path d="M53.6636 190.103H49.4257V200.41H53.6636V190.103Z" fill="#E0E0E0"/>
<path d="M62.8548 190.103H58.6169V200.41H62.8548V190.103Z" fill="#E0E0E0"/>
<path d="M53.6636 209.668H49.4257V219.976H53.6636V209.668Z" fill="#E0E0E0"/>
<path d="M62.8548 209.668H58.6169V219.976H62.8548V209.668Z" fill="#E0E0E0"/>
<path d="M53.6636 229.227H49.4257V239.535H53.6636V229.227Z" fill="#E0E0E0"/>
<path d="M62.8548 229.227H58.6169V239.535H62.8548V229.227Z" fill="#E0E0E0"/>
<path d="M70.3807 179.504H16.1515V181.746H70.3807V179.504Z" fill="#E0E0E0"/>
<path d="M67.1606 181.962C67.1606 182.049 56.6245 182.123 43.6332 182.123C30.6419 182.123 20.1304 182.049 20.1304 181.962C20.1304 181.876 30.6665 181.802 43.664 181.802C56.6615 181.802 67.1606 181.876 67.1606 181.962Z" fill="white"/>
<path d="M249.502 198.779H215.592V243.555H249.502V198.779Z" fill="#E0E0E0"/>
<path d="M249.495 198.779H233.599V243.555H249.495V198.779Z" fill="#F0F0F0"/>
<path d="M225.746 204.838H222.699V212.256H225.746V204.838Z" fill="#F5F5F5"/>
<path d="M225.746 233.865H222.699V241.283H225.746V233.865Z" fill="#F5F5F5"/>
<path d="M233.599 215.164C233.599 215.232 229.571 215.281 224.599 215.281C219.627 215.281 215.592 215.232 215.592 215.164C215.592 215.096 219.62 215.053 224.599 215.053C229.577 215.053 233.599 215.103 233.599 215.164Z" fill="white"/>
<path d="M225.746 219.463H222.699V226.88H225.746V219.463Z" fill="#F5F5F5"/>
<path d="M233.599 229.789C233.599 229.851 229.571 229.906 224.599 229.906C219.627 229.906 215.592 229.851 215.592 229.789C215.592 229.727 219.62 229.672 224.599 229.672C229.577 229.672 233.599 229.721 233.599 229.789Z" fill="white"/>
<path d="M240.02 204.838H236.973V212.256H240.02V204.838Z" fill="#E0E0E0"/>
<path d="M246.639 204.838H243.592V212.256H246.639V204.838Z" fill="#E0E0E0"/>
<path d="M240.02 218.913H236.973V226.33H240.02V218.913Z" fill="#E0E0E0"/>
<path d="M246.639 218.913H243.592V226.33H246.639V218.913Z" fill="#E0E0E0"/>
<path d="M240.02 232.982H236.973V240.399H240.02V232.982Z" fill="#E0E0E0"/>
<path d="M246.639 232.982H243.592V240.399H246.639V232.982Z" fill="#E0E0E0"/>
<path d="M252.049 197.217H213.045V198.829H252.049V197.217Z" fill="#E0E0E0"/>
<path d="M249.736 198.983C249.736 199.051 242.155 199.1 232.809 199.1C223.464 199.1 215.882 199.051 215.882 198.983C215.882 198.915 223.457 198.872 232.809 198.872C242.161 198.872 249.736 198.921 249.736 198.983Z" fill="white"/>
<path d="M12 76.6929H46.7237C46.7237 76.6929 46.7237 68.7321 42.6277 68.7321C41.1578 68.6839 39.7172 69.1512 38.5548 70.0533C37.3925 70.9554 36.5814 72.2356 36.2616 73.6728C36.2616 73.6728 36.2616 58.8196 28.7974 60.9997C21.7281 63.0625 20.9323 72.5735 20.9323 72.5735C20.9323 72.5735 19.6615 67.7871 15.8308 70.486C12 73.1849 12 76.6929 12 76.6929Z" fill="#E0E0E0"/>
<path d="M195.427 10.3198H217.942C217.942 10.3198 217.942 5.15673 215.284 5.15673C214.331 5.12511 213.398 5.42746 212.644 6.01155C211.891 6.59564 211.365 7.42481 211.157 8.35588C211.157 8.35588 211.157 -1.27246 206.314 0.141838C201.737 1.47585 201.219 7.63947 201.219 7.63947C201.219 7.63947 200.392 4.55148 197.913 6.28693C195.433 8.02238 195.427 10.3198 195.427 10.3198Z" fill="#EBEBEB"/>
<path d="M241.118 109.858H263.634C263.634 109.858 263.634 104.701 260.975 104.701C260.023 104.669 259.089 104.972 258.336 105.556C257.582 106.14 257.056 106.969 256.849 107.9C256.849 107.9 256.849 98.2716 252.006 99.6797C247.429 101.02 246.911 107.184 246.911 107.184C246.911 107.184 246.084 104.096 243.604 105.831C241.124 107.566 241.118 109.858 241.118 109.858Z" fill="#E0E0E0"/>
<path d="M223.39 15.6187H135.578V21.4858H217.529V226.528H135.578V232.395H223.39V15.6187Z" fill="#455A64"/>
<path d="M135.578 21.4858V27.353V220.661V226.528H217.529V21.4858H135.578Z" fill="white"/>
<path d="M49.1233 226.528V21.4858H135.578V15.6187H43.2631V232.395H135.578V226.528H49.1233Z" fill="#263238"/>
<path d="M49.1233 21.4858V226.528H135.578V220.661V27.353V21.4858H49.1233Z" fill="#F5F5F5"/>
<path d="M198.086 27.7792C199.646 28.2979 201.17 28.8723 202.687 29.4714V21.4858H153.43H154.281C167.248 21.949 183.947 23.0298 198.086 27.7792Z" fill="#F5F5F5"/>
<path d="M210.781 21.4858V33.0164C213.02 34.0786 215.259 35.1965 217.529 36.3329V24.3144C215.426 23.3386 213.273 22.3875 211.058 21.4858H210.781Z" fill="#F5F5F5"/>
<path d="M74.3781 199.446C78.7245 197.924 82.8973 195.945 86.8266 193.542L60.3011 174.396C56.2914 176.293 52.0905 178.263 49.1481 180.356V196.531C55.4648 201.194 65.8344 202.374 74.3781 199.446Z" fill="#F5F5F5"/>
<path d="M120.156 151.261C119.515 147.379 119.473 143.422 120.033 139.527L107.109 136.439C100.941 134.963 94.2783 137.477 92.8164 141.824C89.2323 152.509 79.714 162.971 68.3142 170.234C66.6713 171.246 64.9744 172.168 63.2312 172.995L75.8462 182.098L120.958 154.664C120.625 153.547 120.357 152.41 120.156 151.261Z" fill="#F5F5F5"/>
<path d="M129.773 169.332C126.349 165.918 123.66 161.839 121.871 157.345L78.3137 183.84L89.4791 191.899C93.6985 189.213 97.6958 186.304 101.915 183.537C110.683 177.846 120.02 173.086 129.773 169.332Z" fill="#F5F5F5"/>
<path d="M174.034 152.466L123.512 140.33C123.049 143.867 123.116 147.454 123.709 150.971C124.923 157.522 128.144 163.532 132.925 168.165C146.056 163.378 159.665 160.026 173.515 158.166C177.84 157.549 178.216 153.423 174.034 152.466Z" fill="#F5F5F5"/>
<path d="M71.5157 132.826L73.4219 121.506L73.6131 120.462C73.3108 119.845 72.9962 119.27 72.7186 118.677C69.9674 119.412 66.9139 119.338 64.0084 119.684C61.1029 120.03 58.0001 121.012 57.0254 122.914C56.4086 124.081 56.7478 125.384 57.0809 126.582C57.5868 128.46 58.0947 130.335 58.6046 132.209C59.0241 133.777 59.4806 135.396 60.776 136.717C61.5582 137.465 62.5001 138.025 63.5304 138.354C64.5606 138.684 65.6522 138.775 66.7226 138.619C67.4661 138.504 68.1781 138.237 68.8146 137.836C69.4512 137.434 69.9989 136.906 70.4239 136.285C71.0226 135.22 71.3944 134.042 71.5157 132.826Z" fill="#F5F5F5"/>
<path d="M179.333 109.79L211.058 119.227L217.529 114.7V101.576L196.334 95.2764L179.333 109.79Z" fill="#E6E6E6"/>
<path d="M200.041 92.1141L217.529 97.3143V83.7951L210.725 82.9922L200.041 92.1141Z" fill="#E6E6E6"/>
<path d="M210.781 33.0164V21.4858H202.687V70.8936L99.2565 50.6549L104.864 21.4858H96.9186L91.4778 49.7656L49.1234 48.0178V53.4094L90.4538 55.1449L80.1397 108.752L51.8746 112.266L49.1234 102.428V120.246C49.3807 125.085 50.1373 129.885 51.3811 134.568C51.9062 137.003 52.9359 139.3 54.4038 141.312C57.2476 144.913 62.6514 147.488 68.5487 148.106C66.4532 151.107 63.8868 153.749 60.9488 155.931C57.5313 158.475 53.4785 160.55 49.1234 162.52V168.912L51.3318 167.961L60.2764 174.415L86.8019 193.561L94.8212 199.335C87.0425 203.658 79.3316 207.092 71.2074 208.019C69.2766 208.235 66.9756 208.352 64.5143 208.476C59.3444 208.64 54.1918 209.158 49.0925 210.026V215.584C49.4997 215.492 49.9006 215.405 50.3263 215.325C55.138 214.472 60.0059 213.974 64.8906 213.836C67.5123 213.701 69.9921 213.577 72.2931 213.318C86.4811 211.7 98.3806 204.443 110.959 196.76C124.061 188.731 138.915 179.671 158.143 176.941C178.549 174.038 201.293 179.035 217.505 189.985V182.635C207.892 177.41 197.462 173.86 186.661 172.136C192.527 168.085 196.697 162.872 198.283 157.283C198.375 156.956 198.456 156.628 198.536 156.301C198.804 155.13 198.941 153.933 198.943 152.731C198.943 152.112 198.906 151.493 198.832 150.879L217.529 145.314V139.441L197.247 145.499C196.064 143.112 194.461 140.957 192.515 139.138L217.529 127.404V124.439L190.264 137.224C185.927 133.989 180.965 131.696 175.693 130.492L152.141 124.754L208.276 77.4463L217.529 78.4036V72.9625L210.781 72.2647V33.0164ZM98.2202 56.0527L127.417 61.7717L125.825 118.35L87.9863 109.141L98.2202 56.0527ZM57.5622 140.151C56.0879 138.298 55.4155 136.062 54.9035 134.129C53.471 128.736 52.7024 123.188 52.6149 117.609L79.0663 114.323L77.4008 122.969C75.7846 131.369 73.9771 139.107 70.0662 145.728C64.8844 145.438 60.0297 143.288 57.5622 140.151ZM63.2312 172.958L54.373 166.566C58.7302 164.648 62.8789 162.286 66.7536 159.519C79.2329 150.255 82.4961 137.786 85.2104 123.698L86.9561 114.613L124.542 123.766C122.367 128.799 120.851 134.092 120.033 139.515C119.473 143.409 119.515 147.367 120.156 151.249C120.358 152.386 120.626 153.509 120.958 154.615L75.8462 182.061L63.2312 172.958ZM105.913 192.721C103.106 194.438 100.361 196.124 97.5786 197.729L89.4791 191.881L78.3137 183.821L121.871 157.326C123.66 161.82 126.349 165.9 129.773 169.314C132.404 171.952 135.377 174.225 138.613 176.07C125.992 180.474 115.511 186.872 105.913 192.739V192.721ZM173.047 135.556C185.285 138.533 192.743 146.907 190.776 155.455C190.714 155.721 190.646 155.986 190.572 156.245C188.9 162.106 183.731 167.51 176.588 170.957C164.982 170.142 153.327 171.484 142.209 174.915C138.803 173.127 135.684 170.837 132.956 168.122C128.179 163.495 124.958 157.495 123.74 150.953C123.147 147.435 123.08 143.849 123.543 140.311C124.301 134.882 125.789 129.581 127.966 124.55L173.047 135.556ZM166.261 104.151L144.122 122.809L129.366 119.214L130.958 62.4696L166.255 69.3805L166.261 104.151ZM170.308 100.742V70.171L199.739 75.9394L170.308 100.742Z" fill="#E0E0E0"/>
<path d="M83.8655 59.499L58.364 58.6899V86.6424H79.3438L83.8655 59.499Z" fill="#EBEBEB"/>
<path d="M78.6037 91.9043H54.3236V103.305H78.6037V91.9043Z" fill="#EBEBEB"/>
<path d="M141.993 52.2668L197.296 62.0495V33.146H162.227V46.3008H141.993V52.2668Z" fill="#EBEBEB"/>
<path d="M128.509 50.0993V26.1304H111.495L108.522 46.2887L128.509 50.0993Z" fill="#EBEBEB"/>
<path d="M154.133 25.2534H136.596V37.5312H154.133V25.2534Z" fill="#E0E0E0"/>
<path d="M165.033 121.993L194.057 131.103L206.771 122.216L175.625 112.958L165.033 121.993Z" fill="#E6E6E6"/>
<path d="M120.415 65.5947H104.228V101.551H120.415V65.5947Z" fill="#EBEBEB"/>
<path d="M97.486 99.7974H93.4393V106.813H97.486V99.7974Z" fill="#E0E0E0"/>
<path d="M160.876 73.8088L136.596 68.7568V87.0995V90.1504H160.876V73.8088Z" fill="#EBEBEB"/>
<path d="M139.298 100.674H133.9V111.198H139.298V100.674Z" fill="#EBEBEB"/>
<path d="M147.391 100.674H141.993V111.198H147.391V100.674Z" fill="#EBEBEB"/>
<path d="M155.484 100.674H150.087V111.198H155.484V100.674Z" fill="#EBEBEB"/>
<path d="M57.0192 21.4858H49.1233V43.2438L57.0192 43.5279V21.4858Z" fill="#E6E6E6"/>
<path d="M85.2165 44.479L88.9671 21.4858H63.7617V43.7132L85.2165 44.479Z" fill="#E6E6E6"/>
<path d="M217.529 177.583V166.72L212.526 175.261L217.529 177.583Z" fill="#F0F0F0"/>
<path d="M100.871 83.0795C102.904 65.716 80.3579 60.2362 71.7331 72.9925C63.8464 84.6708 85.4344 119 85.4344 119L100.871 83.0795ZM89.3194 89.7657C87.9361 90.7155 86.2996 91.2375 84.617 91.2656C82.9343 91.2936 81.281 90.8266 79.8662 89.9234C78.4514 89.0203 77.3386 87.7217 76.6687 86.1918C75.9987 84.6619 75.8016 82.9695 76.1024 81.3286C76.4031 79.6877 77.1881 78.172 78.3582 76.9733C79.5282 75.7746 81.0307 74.9467 82.6756 74.5942C84.3205 74.2418 86.034 74.3806 87.5992 74.9933C89.1645 75.6059 90.5112 76.6648 91.4692 78.036C92.7473 79.8783 93.236 82.1477 92.8281 84.3465C92.4203 86.5454 91.1492 88.4942 89.2935 89.7657H89.3194Z" fill="#4ABAAD"/>
<path d="M263.104 216.159C262.363 216.216 261.642 216.423 260.984 216.767C260.326 217.111 259.744 217.585 259.273 218.16C258.34 219.321 257.683 220.679 257.348 222.131C256.633 224.91 257.12 228.177 257.928 230.932C260.92 229.832 262.74 226.608 263.566 224.922C264.862 222.254 265.59 216.634 263.104 216.159Z" fill="#4ABAAD"/>
<path opacity="0.2" d="M263.104 216.159C262.363 216.216 261.642 216.423 260.984 216.767C260.326 217.111 259.744 217.585 259.273 218.16C258.34 219.321 257.683 220.679 257.348 222.131C256.633 224.91 257.12 228.177 257.928 230.932C260.92 229.832 262.74 226.608 263.566 224.922C264.862 222.254 265.59 216.634 263.104 216.159Z" fill="black"/>
<path d="M253.647 234.328C254.09 233.625 254.34 232.818 254.371 231.987C254.402 231.156 254.214 230.332 253.826 229.598C253.423 228.871 252.881 228.231 252.23 227.716C251.578 227.201 250.831 226.82 250.032 226.596C249.676 226.455 249.293 226.394 248.911 226.416C248.528 226.439 248.155 226.544 247.818 226.726C247.533 226.945 247.313 227.236 247.179 227.57C247.046 227.903 247.004 228.267 247.059 228.622C247.174 229.333 247.477 230 247.935 230.555C249.409 232.519 251.198 234.149 253.647 234.328Z" fill="#4ABAAD"/>
<path d="M253.622 243.864C253.696 243.675 253.746 243.478 253.77 243.277C253.844 242.9 253.937 242.344 254.036 241.659C254.326 239.868 254.374 238.046 254.178 236.243C253.966 234.418 253.264 232.685 252.148 231.228C251.803 230.795 251.405 230.407 250.964 230.073C250.813 229.938 250.64 229.832 250.452 229.758C250.999 230.255 251.506 230.794 251.969 231.37C253.004 232.831 253.653 234.531 253.857 236.311C254.046 238.089 254.029 239.884 253.807 241.659C253.702 242.389 253.64 243.126 253.622 243.864Z" fill="#263238"/>
<path d="M262.178 220.383C262.005 220.668 261.856 220.967 261.734 221.278C261.469 221.859 261.117 222.705 260.649 223.749C259.754 225.849 258.564 228.776 257.33 232.043C256.096 235.31 255.06 238.293 254.338 240.461C253.98 241.548 253.721 242.431 253.511 243.042C253.397 243.353 253.312 243.673 253.258 244C253.404 243.702 253.528 243.395 253.629 243.08C253.869 242.425 254.178 241.573 254.554 240.535C255.325 238.386 256.404 235.415 257.638 232.154C258.872 228.893 260.025 225.978 260.864 223.829C261.265 222.81 261.599 221.976 261.858 221.315C261.989 221.013 262.096 220.702 262.178 220.383Z" fill="#263238"/>
<path d="M256.756 237.058C257.744 235.61 259.063 234.419 260.602 233.583C262.141 232.746 263.857 232.288 265.608 232.247C266.496 232.247 267.551 232.451 267.897 233.266C268.242 234.081 267.662 235.002 267.021 235.619C265.66 236.886 263.955 237.722 262.12 238.019C260.286 238.317 258.404 238.064 256.713 237.293" fill="#4ABAAD"/>
<path d="M264.078 234.433C263.886 234.404 263.691 234.404 263.499 234.433C263.273 234.445 263.048 234.474 262.826 234.52C262.531 234.562 262.238 234.621 261.95 234.699C261.193 234.891 260.457 235.16 259.754 235.501C258.894 235.927 258.081 236.442 257.33 237.039C256.594 237.654 255.924 238.343 255.331 239.096C254.855 239.718 254.442 240.387 254.097 241.091C253.96 241.356 253.841 241.631 253.74 241.912C253.651 242.112 253.578 242.318 253.524 242.53C253.455 242.71 253.411 242.899 253.394 243.092C253.456 243.092 253.684 242.32 254.301 241.165C254.666 240.493 255.089 239.855 255.566 239.256C256.736 237.788 258.209 236.589 259.884 235.742C260.566 235.397 261.279 235.114 262.012 234.896C263.264 234.557 264.085 234.495 264.078 234.433Z" fill="#263238"/>
<path d="M21.9809 106.628C30.6171 102.811 34.744 130.016 35.2992 132.134C35.8544 134.253 37.3225 134.506 39.8332 131.332C42.3439 128.157 44.5091 129.386 44.5091 129.386C49.2343 132.27 42.825 149.057 42.8867 150.422C42.9484 151.786 41.9367 153.75 46.847 150.971C51.7573 148.192 55.878 146.71 56.5936 150.971C57.2475 154.85 52.2323 166.047 52.2755 167.646C52.3187 169.246 57.3894 165.225 59.5237 163.891C62.2873 162.174 65.236 162.292 65.7541 165.744C66.4265 170.271 57.4387 183.512 57.4387 183.512L53.1206 190.257L45.2308 188.126C45.2308 188.126 29.809 183.766 27.3971 179.887C25.5464 176.904 27.6993 174.897 30.9071 174.403C33.3745 174.026 39.8332 173.785 38.8524 172.55C37.8715 171.315 26.7925 166.084 24.763 162.712C22.5423 159.006 26.6136 157.45 32.1655 156.363C37.7173 155.276 35.6631 154.442 34.818 153.367C33.9729 152.293 18.2057 143.708 19.9268 138.44C19.9268 138.44 20.7719 136.106 24.7383 136.878C28.7048 137.65 29.6733 136.507 28.6987 134.531C27.724 132.554 13.2399 109.209 22.2585 106.479" fill="#4ABAAD"/>
<path d="M57.704 202.886C57.5374 202.948 50.1658 183.179 41.2458 158.734C32.3259 134.29 25.2072 114.422 25.3799 114.36C25.5526 114.298 32.9181 134.068 41.8442 158.518C50.7703 182.969 57.8705 202.825 57.704 202.886Z" fill="white"/>
<path d="M37.2116 146.766C37.0512 146.704 37.7112 144.474 38.8833 141.874C40.0553 139.274 41.2644 137.285 41.4186 137.372C41.5728 137.458 40.6229 139.546 39.4693 142.134C38.3158 144.721 37.4028 146.821 37.2116 146.766Z" fill="white"/>
<path d="M26.5952 142.294C26.6322 142.127 29.1367 142.621 32.036 143.801C34.9353 144.98 37.0944 146.351 37.008 146.493C36.9217 146.635 34.6639 145.548 31.8016 144.394C28.9393 143.239 26.5459 142.473 26.5952 142.294Z" fill="white"/>
<path d="M43.6763 164.799C43.5406 164.682 45.3851 162.329 47.797 159.482C50.209 156.635 52.2694 154.473 52.4051 154.584C52.5408 154.695 50.6963 157.055 48.2844 159.902C45.8724 162.749 43.8121 164.917 43.6763 164.799Z" fill="white"/>
<path d="M29.3835 161.903C29.3835 161.736 32.7578 162.014 36.8229 162.817C40.8881 163.62 44.102 164.62 44.0588 164.787C44.0157 164.954 40.7462 164.237 36.6996 163.447C32.6529 162.656 29.3403 162.088 29.3835 161.903Z" fill="white"/>
<path d="M33.8003 179.183C33.8003 179.004 37.3411 179.374 41.6531 180.01C45.965 180.646 49.438 181.301 49.4071 181.474C49.3763 181.647 45.8725 181.276 41.5605 180.646C37.2486 180.017 33.7756 179.356 33.8003 179.183Z" fill="white"/>
<path d="M49.7958 181.184C49.6786 181.03 52.0659 179.109 54.5457 176.293C57.0255 173.477 58.6602 170.889 58.8206 170.988C58.981 171.086 57.5869 173.859 55.0268 176.719C52.4668 179.578 49.8821 181.32 49.7958 181.184Z" fill="white"/>
</svg>
