<svg width="325" height="500" viewBox="0 0 325 500" fill="none" xmlns="http://www.w3.org/2000/svg">
<path d="M11.6651 462L8.64508 457.7C8.27175 457.727 7.97841 457.74 7.76508 457.74H4.30508V462H2.30508V448H7.76508C9.57841 448 11.0051 448.433 12.0451 449.3C13.0851 450.167 13.6051 451.36 13.6051 452.88C13.6051 453.96 13.3384 454.88 12.8051 455.64C12.2717 456.4 11.5117 456.953 10.5251 457.3L13.8451 462H11.6651ZM7.70508 456.04C8.97175 456.04 9.93841 455.767 10.6051 455.22C11.2717 454.673 11.6051 453.893 11.6051 452.88C11.6051 451.867 11.2717 451.093 10.6051 450.56C9.93841 450.013 8.97175 449.74 7.70508 449.74H4.30508V456.04H7.70508ZM26.1363 456.76C26.1363 456.907 26.123 457.1 26.0963 457.34H17.4963C17.6163 458.273 18.023 459.027 18.7163 459.6C19.423 460.16 20.2963 460.44 21.3363 460.44C22.603 460.44 23.623 460.013 24.3963 459.16L25.4563 460.4C24.9763 460.96 24.3763 461.387 23.6563 461.68C22.9497 461.973 22.1563 462.12 21.2763 462.12C20.1563 462.12 19.163 461.893 18.2963 461.44C17.4297 460.973 16.7563 460.327 16.2763 459.5C15.8097 458.673 15.5763 457.74 15.5763 456.7C15.5763 455.673 15.803 454.747 16.2563 453.92C16.723 453.093 17.3563 452.453 18.1563 452C18.9697 451.533 19.883 451.3 20.8963 451.3C21.9097 451.3 22.8097 451.533 23.5963 452C24.3963 452.453 25.0163 453.093 25.4563 453.92C25.9097 454.747 26.1363 455.693 26.1363 456.76ZM20.8963 452.92C19.9763 452.92 19.203 453.2 18.5763 453.76C17.963 454.32 17.603 455.053 17.4963 455.96H24.2963C24.1897 455.067 23.823 454.34 23.1963 453.78C22.583 453.207 21.8163 452.92 20.8963 452.92ZM32.3695 451.3C33.8361 451.3 34.9561 451.66 35.7295 452.38C36.5161 453.1 36.9095 454.173 36.9095 455.6V462H35.0895V460.6C34.7695 461.093 34.3095 461.473 33.7095 461.74C33.1228 461.993 32.4228 462.12 31.6095 462.12C30.4228 462.12 29.4695 461.833 28.7495 461.26C28.0428 460.687 27.6895 459.933 27.6895 459C27.6895 458.067 28.0295 457.32 28.7095 456.76C29.3895 456.187 30.4695 455.9 31.9495 455.9H34.9895V455.52C34.9895 454.693 34.7495 454.06 34.2695 453.62C33.7895 453.18 33.0828 452.96 32.1495 452.96C31.5228 452.96 30.9095 453.067 30.3095 453.28C29.7095 453.48 29.2028 453.753 28.7895 454.1L27.9895 452.66C28.5361 452.22 29.1895 451.887 29.9495 451.66C30.7095 451.42 31.5161 451.3 32.3695 451.3ZM31.9295 460.64C32.6628 460.64 33.2961 460.48 33.8295 460.16C34.3628 459.827 34.7495 459.36 34.9895 458.76V457.28H32.0295C30.4028 457.28 29.5895 457.827 29.5895 458.92C29.5895 459.453 29.7961 459.873 30.2095 460.18C30.6228 460.487 31.1961 460.64 31.9295 460.64ZM40.4626 447.16H42.3826V462H40.4626V447.16ZM54.4796 449.74H49.6796V448H61.2596V449.74H56.4596V462H54.4796V449.74ZM62.904 451.4H64.824V462H62.904V451.4ZM63.864 449.36C63.4907 449.36 63.1773 449.24 62.924 449C62.684 448.76 62.564 448.467 62.564 448.12C62.564 447.773 62.684 447.48 62.924 447.24C63.1773 446.987 63.4907 446.86 63.864 446.86C64.2373 446.86 64.544 446.98 64.784 447.22C65.0373 447.447 65.164 447.733 65.164 448.08C65.164 448.44 65.0373 448.747 64.784 449C64.544 449.24 64.2373 449.36 63.864 449.36ZM81.7499 451.3C83.0833 451.3 84.1366 451.687 84.9099 452.46C85.6966 453.233 86.0899 454.38 86.0899 455.9V462H84.1699V456.12C84.1699 455.093 83.9299 454.32 83.4499 453.8C82.9833 453.28 82.3099 453.02 81.4299 453.02C80.4566 453.02 79.6833 453.327 79.1099 453.94C78.5366 454.54 78.2499 455.407 78.2499 456.54V462H76.3299V456.12C76.3299 455.093 76.0899 454.32 75.6099 453.8C75.1433 453.28 74.4699 453.02 73.5899 453.02C72.6166 453.02 71.8433 453.327 71.2699 453.94C70.6966 454.54 70.4099 455.407 70.4099 456.54V462H68.4899V451.4H70.3299V452.98C70.7166 452.433 71.2233 452.02 71.8499 451.74C72.4766 451.447 73.1899 451.3 73.9899 451.3C74.8166 451.3 75.5499 451.467 76.1899 451.8C76.8299 452.133 77.3233 452.62 77.6699 453.26C78.0699 452.647 78.6233 452.167 79.3299 451.82C80.0499 451.473 80.8566 451.3 81.7499 451.3ZM99.2613 456.76C99.2613 456.907 99.248 457.1 99.2213 457.34H90.6213C90.7413 458.273 91.148 459.027 91.8413 459.6C92.548 460.16 93.4213 460.44 94.4613 460.44C95.728 460.44 96.748 460.013 97.5213 459.16L98.5813 460.4C98.1013 460.96 97.5013 461.387 96.7813 461.68C96.0747 461.973 95.2813 462.12 94.4013 462.12C93.2813 462.12 92.288 461.893 91.4213 461.44C90.5547 460.973 89.8813 460.327 89.4013 459.5C88.9347 458.673 88.7013 457.74 88.7013 456.7C88.7013 455.673 88.928 454.747 89.3813 453.92C89.848 453.093 90.4813 452.453 91.2813 452C92.0947 451.533 93.008 451.3 94.0213 451.3C95.0347 451.3 95.9347 451.533 96.7213 452C97.5213 452.453 98.1413 453.093 98.5813 453.92C99.0347 454.747 99.2613 455.693 99.2613 456.76ZM94.0213 452.92C93.1013 452.92 92.328 453.2 91.7013 453.76C91.088 454.32 90.728 455.053 90.6213 455.96H97.4213C97.3147 455.067 96.948 454.34 96.3213 453.78C95.708 453.207 94.9413 452.92 94.0213 452.92ZM116.499 458.5H109.059L107.519 462H105.459L111.799 448H113.779L120.139 462H118.039L116.499 458.5ZM115.799 456.9L112.779 450.04L109.759 456.9H115.799ZM121.947 451.4H123.867V462H121.947V451.4ZM122.907 449.36C122.534 449.36 122.22 449.24 121.967 449C121.727 448.76 121.607 448.467 121.607 448.12C121.607 447.773 121.727 447.48 121.967 447.24C122.22 446.987 122.534 446.86 122.907 446.86C123.28 446.86 123.587 446.98 123.827 447.22C124.08 447.447 124.207 447.733 124.207 448.08C124.207 448.44 124.08 448.747 123.827 449C123.587 449.24 123.28 449.36 122.907 449.36ZM129.373 453.18C129.706 452.567 130.2 452.1 130.853 451.78C131.506 451.46 132.3 451.3 133.233 451.3V453.16C133.126 453.147 132.98 453.14 132.793 453.14C131.753 453.14 130.933 453.453 130.333 454.08C129.746 454.693 129.453 455.573 129.453 456.72V462H127.533V451.4H129.373V453.18ZM155.807 463.28C155.354 463.813 154.827 464.22 154.227 464.5C153.627 464.78 152.98 464.92 152.287 464.92C151.407 464.92 150.58 464.707 149.807 464.28C149.047 463.867 148.174 463.153 147.187 462.14C145.867 462.073 144.674 461.72 143.607 461.08C142.554 460.44 141.727 459.593 141.127 458.54C140.54 457.473 140.247 456.293 140.247 455C140.247 453.653 140.567 452.433 141.207 451.34C141.86 450.247 142.754 449.393 143.887 448.78C145.02 448.153 146.294 447.84 147.707 447.84C149.107 447.84 150.374 448.153 151.507 448.78C152.64 449.393 153.527 450.247 154.167 451.34C154.807 452.42 155.127 453.64 155.127 455C155.127 456.147 154.894 457.2 154.427 458.16C153.974 459.12 153.327 459.927 152.487 460.58C151.66 461.233 150.707 461.687 149.627 461.94C150.094 462.433 150.54 462.787 150.967 463C151.407 463.227 151.854 463.34 152.307 463.34C153.294 463.34 154.147 462.94 154.867 462.14L155.807 463.28ZM142.247 455C142.247 456.013 142.48 456.933 142.947 457.76C143.427 458.573 144.08 459.213 144.907 459.68C145.747 460.147 146.68 460.38 147.707 460.38C148.72 460.38 149.64 460.147 150.467 459.68C151.294 459.213 151.94 458.573 152.407 457.76C152.887 456.933 153.127 456.013 153.127 455C153.127 453.987 152.887 453.073 152.407 452.26C151.94 451.433 151.294 450.787 150.467 450.32C149.64 449.853 148.72 449.62 147.707 449.62C146.68 449.62 145.747 449.853 144.907 450.32C144.08 450.787 143.427 451.433 142.947 452.26C142.48 453.073 142.247 453.987 142.247 455ZM167.784 451.4V462H165.964V460.4C165.577 460.947 165.064 461.373 164.424 461.68C163.797 461.973 163.111 462.12 162.364 462.12C160.951 462.12 159.837 461.733 159.024 460.96C158.211 460.173 157.804 459.02 157.804 457.5V451.4H159.724V457.28C159.724 458.307 159.971 459.087 160.464 459.62C160.957 460.14 161.664 460.4 162.584 460.4C163.597 460.4 164.397 460.093 164.984 459.48C165.571 458.867 165.864 458 165.864 456.88V451.4H167.784ZM175.299 451.3C176.766 451.3 177.886 451.66 178.659 452.38C179.446 453.1 179.839 454.173 179.839 455.6V462H178.019V460.6C177.699 461.093 177.239 461.473 176.639 461.74C176.052 461.993 175.352 462.12 174.539 462.12C173.352 462.12 172.399 461.833 171.679 461.26C170.972 460.687 170.619 459.933 170.619 459C170.619 458.067 170.959 457.32 171.639 456.76C172.319 456.187 173.399 455.9 174.879 455.9H177.919V455.52C177.919 454.693 177.679 454.06 177.199 453.62C176.719 453.18 176.012 452.96 175.079 452.96C174.452 452.96 173.839 453.067 173.239 453.28C172.639 453.48 172.132 453.753 171.719 454.1L170.919 452.66C171.466 452.22 172.119 451.887 172.879 451.66C173.639 451.42 174.446 451.3 175.299 451.3ZM174.859 460.64C175.592 460.64 176.226 460.48 176.759 460.16C177.292 459.827 177.679 459.36 177.919 458.76V457.28H174.959C173.332 457.28 172.519 457.827 172.519 458.92C172.519 459.453 172.726 459.873 173.139 460.18C173.552 460.487 174.126 460.64 174.859 460.64ZM183.392 447.16H185.312V462H183.392V447.16ZM188.978 451.4H190.898V462H188.978V451.4ZM189.938 449.36C189.565 449.36 189.252 449.24 188.998 449C188.758 448.76 188.638 448.467 188.638 448.12C188.638 447.773 188.758 447.48 188.998 447.24C189.252 446.987 189.565 446.86 189.938 446.86C190.312 446.86 190.618 446.98 190.858 447.22C191.112 447.447 191.238 447.733 191.238 448.08C191.238 448.44 191.112 448.747 190.858 449C190.618 449.24 190.312 449.36 189.938 449.36ZM200.524 461.38C200.244 461.62 199.897 461.807 199.484 461.94C199.071 462.06 198.644 462.12 198.204 462.12C197.137 462.12 196.311 461.833 195.724 461.26C195.137 460.687 194.844 459.867 194.844 458.8V452.98H193.044V451.4H194.844V449.08H196.764V451.4H199.804V452.98H196.764V458.72C196.764 459.293 196.904 459.733 197.184 460.04C197.477 460.347 197.891 460.5 198.424 460.5C199.011 460.5 199.511 460.333 199.924 460L200.524 461.38ZM212.03 451.4L206.89 463.06C206.437 464.14 205.903 464.9 205.29 465.34C204.69 465.78 203.963 466 203.11 466C202.59 466 202.083 465.913 201.59 465.74C201.11 465.58 200.71 465.34 200.39 465.02L201.21 463.58C201.757 464.1 202.39 464.36 203.11 464.36C203.577 464.36 203.963 464.233 204.27 463.98C204.59 463.74 204.877 463.32 205.13 462.72L205.47 461.98L200.79 451.4H202.79L206.49 459.88L210.15 451.4H212.03ZM219.473 448H221.473V462H219.473V448ZM231.044 451.3C232.391 451.3 233.458 451.693 234.244 452.48C235.044 453.253 235.444 454.393 235.444 455.9V462H233.524V456.12C233.524 455.093 233.278 454.32 232.784 453.8C232.291 453.28 231.584 453.02 230.664 453.02C229.624 453.02 228.804 453.327 228.204 453.94C227.604 454.54 227.304 455.407 227.304 456.54V462H225.384V451.4H227.224V453C227.611 452.453 228.131 452.033 228.784 451.74C229.451 451.447 230.204 451.3 231.044 451.3ZM249.056 447.16V462H247.216V460.32C246.79 460.907 246.25 461.353 245.596 461.66C244.943 461.967 244.223 462.12 243.436 462.12C242.41 462.12 241.49 461.893 240.676 461.44C239.863 460.987 239.223 460.353 238.756 459.54C238.303 458.713 238.076 457.767 238.076 456.7C238.076 455.633 238.303 454.693 238.756 453.88C239.223 453.067 239.863 452.433 240.676 451.98C241.49 451.527 242.41 451.3 243.436 451.3C244.196 451.3 244.896 451.447 245.536 451.74C246.176 452.02 246.71 452.44 247.136 453V447.16H249.056ZM243.596 460.44C244.263 460.44 244.87 460.287 245.416 459.98C245.963 459.66 246.39 459.22 246.696 458.66C247.003 458.087 247.156 457.433 247.156 456.7C247.156 455.967 247.003 455.32 246.696 454.76C246.39 454.187 245.963 453.747 245.416 453.44C244.87 453.133 244.263 452.98 243.596 452.98C242.916 452.98 242.303 453.133 241.756 453.44C241.223 453.747 240.796 454.187 240.476 454.76C240.17 455.32 240.016 455.967 240.016 456.7C240.016 457.433 240.17 458.087 240.476 458.66C240.796 459.22 241.223 459.66 241.756 459.98C242.303 460.287 242.916 460.44 243.596 460.44ZM262.269 456.76C262.269 456.907 262.256 457.1 262.229 457.34H253.629C253.749 458.273 254.156 459.027 254.849 459.6C255.556 460.16 256.429 460.44 257.469 460.44C258.736 460.44 259.756 460.013 260.529 459.16L261.589 460.4C261.109 460.96 260.509 461.387 259.789 461.68C259.082 461.973 258.289 462.12 257.409 462.12C256.289 462.12 255.296 461.893 254.429 461.44C253.562 460.973 252.889 460.327 252.409 459.5C251.942 458.673 251.709 457.74 251.709 456.7C251.709 455.673 251.936 454.747 252.389 453.92C252.856 453.093 253.489 452.453 254.289 452C255.102 451.533 256.016 451.3 257.029 451.3C258.042 451.3 258.942 451.533 259.729 452C260.529 452.453 261.149 453.093 261.589 453.92C262.042 454.747 262.269 455.693 262.269 456.76ZM257.029 452.92C256.109 452.92 255.336 453.2 254.709 453.76C254.096 454.32 253.736 455.053 253.629 455.96H260.429C260.322 455.067 259.956 454.34 259.329 453.78C258.716 453.207 257.949 452.92 257.029 452.92ZM271.402 462L268.342 457.94L265.242 462H263.102L267.282 456.58L263.302 451.4H265.442L268.362 455.22L271.262 451.4H273.362L269.362 456.58L273.582 462H271.402ZM278.137 465.88C277.377 464.653 276.791 463.247 276.377 461.66C275.964 460.06 275.757 458.347 275.757 456.52C275.757 454.693 275.964 452.98 276.377 451.38C276.791 449.767 277.377 448.36 278.137 447.16H279.957C279.157 448.56 278.571 450.027 278.197 451.56C277.824 453.093 277.637 454.747 277.637 456.52C277.637 458.293 277.824 459.947 278.197 461.48C278.571 463.013 279.157 464.48 279.957 465.88H278.137ZM291.616 458.5H284.176L282.636 462H280.576L286.916 448H288.896L295.256 462H293.156L291.616 458.5ZM290.916 456.9L287.896 450.04L284.876 456.9H290.916ZM311.569 463.28C311.115 463.813 310.589 464.22 309.989 464.5C309.389 464.78 308.742 464.92 308.049 464.92C307.169 464.92 306.342 464.707 305.569 464.28C304.809 463.867 303.935 463.153 302.949 462.14C301.629 462.073 300.435 461.72 299.369 461.08C298.315 460.44 297.489 459.593 296.889 458.54C296.302 457.473 296.009 456.293 296.009 455C296.009 453.653 296.329 452.433 296.969 451.34C297.622 450.247 298.515 449.393 299.649 448.78C300.782 448.153 302.055 447.84 303.469 447.84C304.869 447.84 306.135 448.153 307.269 448.78C308.402 449.393 309.289 450.247 309.929 451.34C310.569 452.42 310.889 453.64 310.889 455C310.889 456.147 310.655 457.2 310.189 458.16C309.735 459.12 309.089 459.927 308.249 460.58C307.422 461.233 306.469 461.687 305.389 461.94C305.855 462.433 306.302 462.787 306.729 463C307.169 463.227 307.615 463.34 308.069 463.34C309.055 463.34 309.909 462.94 310.629 462.14L311.569 463.28ZM298.009 455C298.009 456.013 298.242 456.933 298.709 457.76C299.189 458.573 299.842 459.213 300.669 459.68C301.509 460.147 302.442 460.38 303.469 460.38C304.482 460.38 305.402 460.147 306.229 459.68C307.055 459.213 307.702 458.573 308.169 457.76C308.649 456.933 308.889 456.013 308.889 455C308.889 453.987 308.649 453.073 308.169 452.26C307.702 451.433 307.055 450.787 306.229 450.32C305.402 449.853 304.482 449.62 303.469 449.62C302.442 449.62 301.509 449.853 300.669 450.32C299.842 450.787 299.189 451.433 298.709 452.26C298.242 453.073 298.009 453.987 298.009 455ZM313.946 448H315.946V462H313.946V448ZM318.677 465.88C319.477 464.48 320.064 463.013 320.437 461.48C320.824 459.947 321.017 458.293 321.017 456.52C321.017 454.747 320.824 453.093 320.437 451.56C320.064 450.027 319.477 448.56 318.677 447.16H320.497C321.27 448.36 321.864 449.76 322.277 451.36C322.69 452.96 322.897 454.68 322.897 456.52C322.897 458.347 322.69 460.06 322.277 461.66C321.864 463.26 321.27 464.667 320.497 465.88H318.677ZM89.6813 481.4H91.6013V492H89.6813V481.4ZM90.6413 479.36C90.268 479.36 89.9547 479.24 89.7013 479C89.4613 478.76 89.3413 478.467 89.3413 478.12C89.3413 477.773 89.4613 477.48 89.7013 477.24C89.9547 476.987 90.268 476.86 90.6413 476.86C91.0147 476.86 91.3213 476.98 91.5613 477.22C91.8147 477.447 91.9413 477.733 91.9413 478.08C91.9413 478.44 91.8147 478.747 91.5613 479C91.3213 479.24 91.0147 479.36 90.6413 479.36ZM100.927 481.3C102.274 481.3 103.341 481.693 104.127 482.48C104.927 483.253 105.327 484.393 105.327 485.9V492H103.407V486.12C103.407 485.093 103.161 484.32 102.667 483.8C102.174 483.28 101.467 483.02 100.547 483.02C99.5073 483.02 98.6873 483.327 98.0873 483.94C97.4873 484.54 97.1873 485.407 97.1873 486.54V492H95.2673V481.4H97.1073V483C97.4939 482.453 98.0139 482.033 98.6673 481.74C99.3339 481.447 100.087 481.3 100.927 481.3ZM120.212 491.38C119.932 491.62 119.585 491.807 119.172 491.94C118.758 492.06 118.332 492.12 117.892 492.12C116.825 492.12 115.998 491.833 115.412 491.26C114.825 490.687 114.532 489.867 114.532 488.8V482.98H112.732V481.4H114.532V479.08H116.452V481.4H119.492V482.98H116.452V488.72C116.452 489.293 116.592 489.733 116.872 490.04C117.165 490.347 117.578 490.5 118.112 490.5C118.698 490.5 119.198 490.333 119.612 490L120.212 491.38ZM128.193 481.3C129.54 481.3 130.606 481.693 131.393 482.48C132.193 483.253 132.593 484.393 132.593 485.9V492H130.673V486.12C130.673 485.093 130.426 484.32 129.933 483.8C129.44 483.28 128.733 483.02 127.813 483.02C126.773 483.02 125.953 483.327 125.353 483.94C124.753 484.54 124.453 485.407 124.453 486.54V492H122.533V477.16H124.453V482.9C124.853 482.393 125.373 482 126.013 481.72C126.666 481.44 127.393 481.3 128.193 481.3ZM136.146 481.4H138.066V492H136.146V481.4ZM137.106 479.36C136.733 479.36 136.42 479.24 136.166 479C135.926 478.76 135.806 478.467 135.806 478.12C135.806 477.773 135.926 477.48 136.166 477.24C136.42 476.987 136.733 476.86 137.106 476.86C137.48 476.86 137.786 476.98 138.026 477.22C138.28 477.447 138.406 477.733 138.406 478.08C138.406 478.44 138.28 478.747 138.026 479C137.786 479.24 137.48 479.36 137.106 479.36ZM144.772 492.12C143.905 492.12 143.072 492.007 142.272 491.78C141.472 491.54 140.845 491.24 140.392 490.88L141.192 489.36C141.659 489.693 142.225 489.96 142.892 490.16C143.559 490.36 144.232 490.46 144.912 490.46C146.592 490.46 147.432 489.98 147.432 489.02C147.432 488.7 147.319 488.447 147.092 488.26C146.865 488.073 146.579 487.94 146.232 487.86C145.899 487.767 145.419 487.667 144.792 487.56C143.939 487.427 143.239 487.273 142.692 487.1C142.159 486.927 141.699 486.633 141.312 486.22C140.925 485.807 140.732 485.227 140.732 484.48C140.732 483.52 141.132 482.753 141.932 482.18C142.732 481.593 143.805 481.3 145.152 481.3C145.859 481.3 146.565 481.387 147.272 481.56C147.979 481.733 148.559 481.967 149.012 482.26L148.192 483.78C147.325 483.22 146.305 482.94 145.132 482.94C144.319 482.94 143.699 483.073 143.272 483.34C142.845 483.607 142.632 483.96 142.632 484.4C142.632 484.747 142.752 485.02 142.992 485.22C143.232 485.42 143.525 485.567 143.872 485.66C144.232 485.753 144.732 485.86 145.372 485.98C146.225 486.127 146.912 486.287 147.432 486.46C147.965 486.62 148.419 486.9 148.792 487.3C149.165 487.7 149.352 488.26 149.352 488.98C149.352 489.94 148.939 490.707 148.112 491.28C147.299 491.84 146.185 492.12 144.772 492.12ZM157.123 477.16H159.043V492H157.123V477.16ZM167.249 492.12C166.195 492.12 165.249 491.887 164.409 491.42C163.569 490.953 162.909 490.313 162.429 489.5C161.962 488.673 161.729 487.74 161.729 486.7C161.729 485.66 161.962 484.733 162.429 483.92C162.909 483.093 163.569 482.453 164.409 482C165.249 481.533 166.195 481.3 167.249 481.3C168.302 481.3 169.242 481.533 170.069 482C170.909 482.453 171.562 483.093 172.029 483.92C172.509 484.733 172.749 485.66 172.749 486.7C172.749 487.74 172.509 488.673 172.029 489.5C171.562 490.313 170.909 490.953 170.069 491.42C169.242 491.887 168.302 492.12 167.249 492.12ZM167.249 490.44C167.929 490.44 168.535 490.287 169.069 489.98C169.615 489.66 170.042 489.22 170.349 488.66C170.655 488.087 170.809 487.433 170.809 486.7C170.809 485.967 170.655 485.32 170.349 484.76C170.042 484.187 169.615 483.747 169.069 483.44C168.535 483.133 167.929 482.98 167.249 482.98C166.569 482.98 165.955 483.133 165.409 483.44C164.875 483.747 164.449 484.187 164.129 484.76C163.822 485.32 163.669 485.967 163.669 486.7C163.669 487.433 163.822 488.087 164.129 488.66C164.449 489.22 164.875 489.66 165.409 489.98C165.955 490.287 166.569 490.44 167.249 490.44ZM180.024 492.12C178.944 492.12 177.977 491.887 177.124 491.42C176.284 490.953 175.624 490.313 175.144 489.5C174.664 488.673 174.424 487.74 174.424 486.7C174.424 485.66 174.664 484.733 175.144 483.92C175.624 483.093 176.284 482.453 177.124 482C177.977 481.533 178.944 481.3 180.024 481.3C180.984 481.3 181.837 481.493 182.584 481.88C183.344 482.267 183.931 482.827 184.344 483.56L182.884 484.5C182.551 483.993 182.137 483.613 181.644 483.36C181.151 483.107 180.604 482.98 180.004 482.98C179.311 482.98 178.684 483.133 178.124 483.44C177.577 483.747 177.144 484.187 176.824 484.76C176.517 485.32 176.364 485.967 176.364 486.7C176.364 487.447 176.517 488.107 176.824 488.68C177.144 489.24 177.577 489.673 178.124 489.98C178.684 490.287 179.311 490.44 180.004 490.44C180.604 490.44 181.151 490.313 181.644 490.06C182.137 489.807 182.551 489.427 182.884 488.92L184.344 489.84C183.931 490.573 183.344 491.14 182.584 491.54C181.837 491.927 180.984 492.12 180.024 492.12ZM190.69 481.3C192.156 481.3 193.276 481.66 194.05 482.38C194.836 483.1 195.23 484.173 195.23 485.6V492H193.41V490.6C193.09 491.093 192.63 491.473 192.03 491.74C191.443 491.993 190.743 492.12 189.93 492.12C188.743 492.12 187.79 491.833 187.07 491.26C186.363 490.687 186.01 489.933 186.01 489C186.01 488.067 186.35 487.32 187.03 486.76C187.71 486.187 188.79 485.9 190.27 485.9H193.31V485.52C193.31 484.693 193.07 484.06 192.59 483.62C192.11 483.18 191.403 482.96 190.47 482.96C189.843 482.96 189.23 483.067 188.63 483.28C188.03 483.48 187.523 483.753 187.11 484.1L186.31 482.66C186.856 482.22 187.51 481.887 188.27 481.66C189.03 481.42 189.836 481.3 190.69 481.3ZM190.25 490.64C190.983 490.64 191.616 490.48 192.15 490.16C192.683 489.827 193.07 489.36 193.31 488.76V487.28H190.35C188.723 487.28 187.91 487.827 187.91 488.92C187.91 489.453 188.116 489.873 188.53 490.18C188.943 490.487 189.516 490.64 190.25 490.64ZM204.743 491.38C204.463 491.62 204.116 491.807 203.703 491.94C203.29 492.06 202.863 492.12 202.423 492.12C201.356 492.12 200.53 491.833 199.943 491.26C199.356 490.687 199.063 489.867 199.063 488.8V482.98H197.263V481.4H199.063V479.08H200.983V481.4H204.023V482.98H200.983V488.72C200.983 489.293 201.123 489.733 201.403 490.04C201.696 490.347 202.11 490.5 202.643 490.5C203.23 490.5 203.73 490.333 204.143 490L204.743 491.38ZM207.064 481.4H208.984V492H207.064V481.4ZM208.024 479.36C207.651 479.36 207.337 479.24 207.084 479C206.844 478.76 206.724 478.467 206.724 478.12C206.724 477.773 206.844 477.48 207.084 477.24C207.337 476.987 207.651 476.86 208.024 476.86C208.397 476.86 208.704 476.98 208.944 477.22C209.197 477.447 209.324 477.733 209.324 478.08C209.324 478.44 209.197 478.747 208.944 479C208.704 479.24 208.397 479.36 208.024 479.36ZM217.19 492.12C216.137 492.12 215.19 491.887 214.35 491.42C213.51 490.953 212.85 490.313 212.37 489.5C211.903 488.673 211.67 487.74 211.67 486.7C211.67 485.66 211.903 484.733 212.37 483.92C212.85 483.093 213.51 482.453 214.35 482C215.19 481.533 216.137 481.3 217.19 481.3C218.243 481.3 219.183 481.533 220.01 482C220.85 482.453 221.503 483.093 221.97 483.92C222.45 484.733 222.69 485.66 222.69 486.7C222.69 487.74 222.45 488.673 221.97 489.5C221.503 490.313 220.85 490.953 220.01 491.42C219.183 491.887 218.243 492.12 217.19 492.12ZM217.19 490.44C217.87 490.44 218.477 490.287 219.01 489.98C219.557 489.66 219.983 489.22 220.29 488.66C220.597 488.087 220.75 487.433 220.75 486.7C220.75 485.967 220.597 485.32 220.29 484.76C219.983 484.187 219.557 483.747 219.01 483.44C218.477 483.133 217.87 482.98 217.19 482.98C216.51 482.98 215.897 483.133 215.35 483.44C214.817 483.747 214.39 484.187 214.07 484.76C213.763 485.32 213.61 485.967 213.61 486.7C213.61 487.433 213.763 488.087 214.07 488.66C214.39 489.22 214.817 489.66 215.35 489.98C215.897 490.287 216.51 490.44 217.19 490.44ZM231.005 481.3C232.352 481.3 233.419 481.693 234.205 482.48C235.005 483.253 235.405 484.393 235.405 485.9V492H233.485V486.12C233.485 485.093 233.239 484.32 232.745 483.8C232.252 483.28 231.545 483.02 230.625 483.02C229.585 483.02 228.765 483.327 228.165 483.94C227.565 484.54 227.265 485.407 227.265 486.54V492H225.345V481.4H227.185V483C227.572 482.453 228.092 482.033 228.745 481.74C229.412 481.447 230.165 481.3 231.005 481.3Z" fill="#373C38"/>
<path d="M220.533 80V94H217.933V88H210.693V94H208.093V80H210.693V85.78H217.933V80H220.533ZM234.044 83.32L229.044 94.86C228.578 96.02 228.011 96.8333 227.344 97.3C226.678 97.78 225.871 98.02 224.924 98.02C224.391 98.02 223.864 97.9333 223.344 97.76C222.824 97.5867 222.398 97.3467 222.064 97.04L223.064 95.2C223.304 95.4267 223.584 95.6067 223.904 95.74C224.238 95.8733 224.571 95.94 224.904 95.94C225.344 95.94 225.704 95.8267 225.984 95.6C226.278 95.3733 226.544 94.9933 226.784 94.46L226.964 94.04L222.304 83.32H224.904L228.264 91.22L231.644 83.32H234.044ZM245.774 79.16V94H243.374V92.62C242.96 93.1267 242.447 93.5067 241.834 93.76C241.234 94.0133 240.567 94.14 239.834 94.14C238.807 94.14 237.88 93.9133 237.054 93.46C236.24 93.0067 235.6 92.3667 235.134 91.54C234.667 90.7 234.434 89.74 234.434 88.66C234.434 87.58 234.667 86.6267 235.134 85.8C235.6 84.9733 236.24 84.3333 237.054 83.88C237.88 83.4267 238.807 83.2 239.834 83.2C240.54 83.2 241.187 83.32 241.774 83.56C242.36 83.8 242.86 84.16 243.274 84.64V79.16H245.774ZM240.134 92C240.734 92 241.274 91.8667 241.754 91.6C242.234 91.32 242.614 90.9267 242.894 90.42C243.174 89.9133 243.314 89.3267 243.314 88.66C243.314 87.9933 243.174 87.4067 242.894 86.9C242.614 86.3933 242.234 86.0067 241.754 85.74C241.274 85.46 240.734 85.32 240.134 85.32C239.534 85.32 238.994 85.46 238.514 85.74C238.034 86.0067 237.654 86.3933 237.374 86.9C237.094 87.4067 236.954 87.9933 236.954 88.66C236.954 89.3267 237.094 89.9133 237.374 90.42C237.654 90.9267 238.034 91.32 238.514 91.6C238.994 91.8667 239.534 92 240.134 92ZM259.084 88.72C259.084 88.8933 259.071 89.14 259.044 89.46H250.664C250.811 90.2467 251.191 90.8733 251.804 91.34C252.431 91.7933 253.204 92.02 254.124 92.02C255.298 92.02 256.264 91.6333 257.024 90.86L258.364 92.4C257.884 92.9733 257.278 93.4067 256.544 93.7C255.811 93.9933 254.984 94.14 254.064 94.14C252.891 94.14 251.858 93.9067 250.964 93.44C250.071 92.9733 249.378 92.3267 248.884 91.5C248.404 90.66 248.164 89.7133 248.164 88.66C248.164 87.62 248.398 86.6867 248.864 85.86C249.344 85.02 250.004 84.3667 250.844 83.9C251.684 83.4333 252.631 83.2 253.684 83.2C254.724 83.2 255.651 83.4333 256.464 83.9C257.291 84.3533 257.931 85 258.384 85.84C258.851 86.6667 259.084 87.6267 259.084 88.72ZM253.684 85.2C252.884 85.2 252.204 85.44 251.644 85.92C251.098 86.3867 250.764 87.0133 250.644 87.8H256.704C256.598 87.0267 256.271 86.4 255.724 85.92C255.178 85.44 254.498 85.2 253.684 85.2ZM263.866 84.88C264.586 83.76 265.852 83.2 267.666 83.2V85.58C267.452 85.54 267.259 85.52 267.086 85.52C266.112 85.52 265.352 85.8067 264.806 86.38C264.259 86.94 263.986 87.7533 263.986 88.82V94H261.486V83.32H263.866V84.88ZM273.808 83.2C275.381 83.2 276.581 83.58 277.408 84.34C278.248 85.0867 278.668 86.22 278.668 87.74V94H276.308V92.7C276.001 93.1667 275.561 93.5267 274.988 93.78C274.428 94.02 273.748 94.14 272.948 94.14C272.148 94.14 271.448 94.0067 270.848 93.74C270.248 93.46 269.781 93.08 269.448 92.6C269.128 92.1067 268.968 91.5533 268.968 90.94C268.968 89.98 269.321 89.2133 270.028 88.64C270.748 88.0533 271.875 87.76 273.408 87.76H276.168V87.6C276.168 86.8533 275.941 86.28 275.488 85.88C275.048 85.48 274.388 85.28 273.508 85.28C272.908 85.28 272.315 85.3733 271.728 85.56C271.155 85.7467 270.668 86.0067 270.268 86.34L269.288 84.52C269.848 84.0933 270.521 83.7667 271.308 83.54C272.095 83.3133 272.928 83.2 273.808 83.2ZM273.468 92.32C274.095 92.32 274.648 92.18 275.128 91.9C275.621 91.6067 275.968 91.1933 276.168 90.66V89.42H273.588C272.148 89.42 271.428 89.8933 271.428 90.84C271.428 91.2933 271.608 91.6533 271.968 91.92C272.328 92.1867 272.828 92.32 273.468 92.32ZM287.796 83.2C288.836 83.2 289.763 83.4267 290.576 83.88C291.403 84.3333 292.05 84.9733 292.516 85.8C292.983 86.6267 293.216 87.58 293.216 88.66C293.216 89.74 292.983 90.7 292.516 91.54C292.05 92.3667 291.403 93.0067 290.576 93.46C289.763 93.9133 288.836 94.14 287.796 94.14C287.063 94.14 286.39 94.0133 285.776 93.76C285.176 93.5067 284.67 93.1267 284.256 92.62V94H281.876V79.16H284.376V84.62C284.803 84.1533 285.303 83.8 285.876 83.56C286.463 83.32 287.103 83.2 287.796 83.2ZM287.516 92C288.436 92 289.19 91.6933 289.776 91.08C290.376 90.4667 290.676 89.66 290.676 88.66C290.676 87.66 290.376 86.8533 289.776 86.24C289.19 85.6267 288.436 85.32 287.516 85.32C286.916 85.32 286.376 85.46 285.896 85.74C285.416 86.0067 285.036 86.3933 284.756 86.9C284.476 87.4067 284.336 87.9933 284.336 88.66C284.336 89.3267 284.476 89.9133 284.756 90.42C285.036 90.9267 285.416 91.32 285.896 91.6C286.376 91.8667 286.916 92 287.516 92ZM299.531 83.2C301.104 83.2 302.304 83.58 303.131 84.34C303.971 85.0867 304.391 86.22 304.391 87.74V94H302.031V92.7C301.724 93.1667 301.284 93.5267 300.711 93.78C300.151 94.02 299.471 94.14 298.671 94.14C297.871 94.14 297.171 94.0067 296.571 93.74C295.971 93.46 295.504 93.08 295.171 92.6C294.851 92.1067 294.691 91.5533 294.691 90.94C294.691 89.98 295.044 89.2133 295.751 88.64C296.471 88.0533 297.597 87.76 299.131 87.76H301.891V87.6C301.891 86.8533 301.664 86.28 301.211 85.88C300.771 85.48 300.111 85.28 299.231 85.28C298.631 85.28 298.037 85.3733 297.451 85.56C296.877 85.7467 296.391 86.0067 295.991 86.34L295.011 84.52C295.571 84.0933 296.244 83.7667 297.031 83.54C297.817 83.3133 298.651 83.2 299.531 83.2ZM299.191 92.32C299.817 92.32 300.371 92.18 300.851 91.9C301.344 91.6067 301.691 91.1933 301.891 90.66V89.42H299.311C297.871 89.42 297.151 89.8933 297.151 90.84C297.151 91.2933 297.331 91.6533 297.691 91.92C298.051 92.1867 298.551 92.32 299.191 92.32ZM318.157 79.16V94H315.757V92.62C315.343 93.1267 314.83 93.5067 314.217 93.76C313.617 94.0133 312.95 94.14 312.217 94.14C311.19 94.14 310.263 93.9133 309.437 93.46C308.623 93.0067 307.983 92.3667 307.517 91.54C307.05 90.7 306.817 89.74 306.817 88.66C306.817 87.58 307.05 86.6267 307.517 85.8C307.983 84.9733 308.623 84.3333 309.437 83.88C310.263 83.4267 311.19 83.2 312.217 83.2C312.923 83.2 313.57 83.32 314.157 83.56C314.743 83.8 315.243 84.16 315.657 84.64V79.16H318.157ZM312.517 92C313.117 92 313.657 91.8667 314.137 91.6C314.617 91.32 314.997 90.9267 315.277 90.42C315.557 89.9133 315.697 89.3267 315.697 88.66C315.697 87.9933 315.557 87.4067 315.277 86.9C314.997 86.3933 314.617 86.0067 314.137 85.74C313.657 85.46 313.117 85.32 312.517 85.32C311.917 85.32 311.377 85.46 310.897 85.74C310.417 86.0067 310.037 86.3933 309.757 86.9C309.477 87.4067 309.337 87.9933 309.337 88.66C309.337 89.3267 309.477 89.9133 309.757 90.42C310.037 90.9267 310.417 91.32 310.897 91.6C311.377 91.8667 311.917 92 312.517 92Z" fill="#FF725E"/>
<path fill-rule="evenodd" clip-rule="evenodd" d="M88.7922 0.0173766C115.582 0.609227 137.963 18.0179 154.115 39.0997C169.662 59.3918 177.464 84.3464 172.526 109.307C167.38 135.317 152.962 160.896 128.052 170.846C104.425 180.283 79.9042 166.589 57.063 155.427C34.7054 144.501 10.4136 133.267 3.04965 109.76C-4.86857 84.4825 3.31795 57.0875 19.6923 36.1299C36.4302 14.707 61.3723 -0.5884 88.7922 0.0173766Z" fill="white"/>
<path d="M63.904 87.336C65.664 88.136 67.008 89.224 67.936 90.6C68.896 91.944 69.376 93.528 69.376 95.352C69.376 97.4 68.8 99.192 67.648 100.728C66.528 102.264 64.928 103.448 62.848 104.28C60.768 105.08 58.352 105.48 55.6 105.48C52.848 105.48 50.432 105.08 48.352 104.28C46.304 103.448 44.72 102.264 43.6 100.728C42.48 99.192 41.92 97.4 41.92 95.352C41.92 93.528 42.384 91.944 43.312 90.6C44.24 89.224 45.568 88.136 47.296 87.336C45.952 86.6 44.912 85.64 44.176 84.456C43.472 83.24 43.12 81.848 43.12 80.28C43.12 78.392 43.632 76.744 44.656 75.336C45.712 73.928 47.184 72.84 49.072 72.072C50.96 71.304 53.136 70.92 55.6 70.92C58.096 70.92 60.288 71.304 62.176 72.072C64.064 72.84 65.536 73.928 66.592 75.336C67.648 76.744 68.176 78.392 68.176 80.28C68.176 81.848 67.808 83.224 67.072 84.408C66.336 85.592 65.28 86.568 63.904 87.336ZM55.6 75.816C53.648 75.816 52.096 76.232 50.944 77.064C49.824 77.896 49.264 79.064 49.264 80.568C49.264 82.008 49.824 83.16 50.944 84.024C52.096 84.856 53.648 85.272 55.6 85.272C57.584 85.272 59.152 84.856 60.304 84.024C61.456 83.16 62.032 82.008 62.032 80.568C62.032 79.064 61.44 77.896 60.256 77.064C59.104 76.232 57.552 75.816 55.6 75.816ZM55.6 100.584C57.904 100.584 59.728 100.104 61.072 99.144C62.416 98.184 63.088 96.856 63.088 95.16C63.088 93.496 62.416 92.184 61.072 91.224C59.728 90.264 57.904 89.784 55.6 89.784C53.296 89.784 51.488 90.264 50.176 91.224C48.864 92.184 48.208 93.496 48.208 95.16C48.208 96.856 48.864 98.184 50.176 99.144C51.488 100.104 53.296 100.584 55.6 100.584ZM84.7525 70.92C89.3605 70.92 92.9285 72.36 95.4565 75.24C98.0165 78.12 99.2965 82.248 99.2965 87.624C99.2965 91.4 98.6085 94.632 97.2325 97.32C95.8565 99.976 93.9205 102.008 91.4245 103.416C88.9605 104.792 86.0965 105.48 82.8325 105.48C81.1045 105.48 79.4725 105.304 77.9365 104.952C76.4325 104.568 75.1205 104.024 74.0005 103.32L76.3045 98.616C77.9685 99.704 80.0965 100.248 82.6885 100.248C85.9205 100.248 88.4485 99.256 90.2725 97.272C92.0965 95.288 93.0085 92.424 93.0085 88.68V88.632C92.0165 89.784 90.7525 90.664 89.2165 91.272C87.6805 91.848 85.9525 92.136 84.0325 92.136C81.8245 92.136 79.8405 91.72 78.0805 90.888C76.3205 90.024 74.9445 88.808 73.9525 87.24C72.9605 85.672 72.4645 83.864 72.4645 81.816C72.4645 79.64 73.0085 77.736 74.0965 76.104C75.1845 74.44 76.6565 73.16 78.5125 72.264C80.3685 71.368 82.4485 70.92 84.7525 70.92ZM85.2325 87.24C87.2485 87.24 88.8805 86.696 90.1285 85.608C91.4085 84.52 92.0485 83.144 92.0485 81.48C92.0485 79.848 91.4245 78.504 90.1765 77.448C88.9605 76.36 87.2645 75.816 85.0885 75.816C83.1365 75.816 81.5525 76.344 80.3365 77.4C79.1205 78.424 78.5125 79.8 78.5125 81.528C78.5125 83.288 79.1205 84.68 80.3365 85.704C81.5525 86.728 83.1845 87.24 85.2325 87.24ZM133.47 97.368H127.518V105H121.47V97.368H103.038V93.048L119.598 71.4H126.27L110.67 92.088H121.662V85.32H127.518V92.088H133.47V97.368Z" fill="#0B6D62"/>
<path d="M221.103 300L221.083 290.72L216.483 298.4H215.323L210.723 290.84V300H208.243V286H210.383L215.943 295.28L221.403 286H223.543L223.563 300H221.103ZM237.445 289.32V300H235.065V298.64C234.665 299.12 234.165 299.493 233.565 299.76C232.965 300.013 232.318 300.14 231.625 300.14C230.198 300.14 229.072 299.747 228.245 298.96C227.432 298.16 227.025 296.98 227.025 295.42V289.32H229.525V295.08C229.525 296.04 229.738 296.76 230.165 297.24C230.605 297.707 231.225 297.94 232.025 297.94C232.918 297.94 233.625 297.667 234.145 297.12C234.678 296.56 234.945 295.76 234.945 294.72V289.32H237.445ZM254.198 289.2C255.545 289.2 256.611 289.593 257.398 290.38C258.185 291.153 258.578 292.32 258.578 293.88V300H256.078V294.2C256.078 293.267 255.871 292.567 255.458 292.1C255.045 291.62 254.451 291.38 253.678 291.38C252.838 291.38 252.165 291.66 251.658 292.22C251.151 292.767 250.898 293.553 250.898 294.58V300H248.398V294.2C248.398 293.267 248.191 292.567 247.778 292.1C247.365 291.62 246.771 291.38 245.998 291.38C245.145 291.38 244.465 291.653 243.958 292.2C243.465 292.747 243.218 293.54 243.218 294.58V300H240.718V289.32H243.098V290.68C243.498 290.2 243.998 289.833 244.598 289.58C245.198 289.327 245.865 289.2 246.598 289.2C247.398 289.2 248.105 289.353 248.718 289.66C249.345 289.953 249.838 290.393 250.198 290.98C250.638 290.42 251.205 289.987 251.898 289.68C252.591 289.36 253.358 289.2 254.198 289.2ZM267.693 289.2C268.733 289.2 269.659 289.427 270.473 289.88C271.299 290.333 271.946 290.973 272.413 291.8C272.879 292.627 273.113 293.58 273.113 294.66C273.113 295.74 272.879 296.7 272.413 297.54C271.946 298.367 271.299 299.007 270.473 299.46C269.659 299.913 268.733 300.14 267.693 300.14C266.959 300.14 266.286 300.013 265.673 299.76C265.073 299.507 264.566 299.127 264.153 298.62V300H261.773V285.16H264.273V290.62C264.699 290.153 265.199 289.8 265.773 289.56C266.359 289.32 266.999 289.2 267.693 289.2ZM267.413 298C268.333 298 269.086 297.693 269.673 297.08C270.273 296.467 270.573 295.66 270.573 294.66C270.573 293.66 270.273 292.853 269.673 292.24C269.086 291.627 268.333 291.32 267.413 291.32C266.813 291.32 266.273 291.46 265.793 291.74C265.313 292.007 264.933 292.393 264.653 292.9C264.373 293.407 264.233 293.993 264.233 294.66C264.233 295.327 264.373 295.913 264.653 296.42C264.933 296.927 265.313 297.32 265.793 297.6C266.273 297.867 266.813 298 267.413 298ZM279.427 289.2C281 289.2 282.2 289.58 283.027 290.34C283.867 291.087 284.287 292.22 284.287 293.74V300H281.927V298.7C281.62 299.167 281.18 299.527 280.607 299.78C280.047 300.02 279.367 300.14 278.567 300.14C277.767 300.14 277.067 300.007 276.467 299.74C275.867 299.46 275.4 299.08 275.067 298.6C274.747 298.107 274.587 297.553 274.587 296.94C274.587 295.98 274.94 295.213 275.647 294.64C276.367 294.053 277.494 293.76 279.027 293.76H281.787V293.6C281.787 292.853 281.56 292.28 281.107 291.88C280.667 291.48 280.007 291.28 279.127 291.28C278.527 291.28 277.934 291.373 277.347 291.56C276.774 291.747 276.287 292.007 275.887 292.34L274.907 290.52C275.467 290.093 276.14 289.767 276.927 289.54C277.714 289.313 278.547 289.2 279.427 289.2ZM279.087 298.32C279.714 298.32 280.267 298.18 280.747 297.9C281.24 297.607 281.587 297.193 281.787 296.66V295.42H279.207C277.767 295.42 277.047 295.893 277.047 296.84C277.047 297.293 277.227 297.653 277.587 297.92C277.947 298.187 278.447 298.32 279.087 298.32ZM287.495 289.32H289.995V300H287.495V289.32ZM288.755 287.56C288.302 287.56 287.922 287.42 287.615 287.14C287.309 286.847 287.155 286.487 287.155 286.06C287.155 285.633 287.309 285.28 287.615 285C287.922 284.707 288.302 284.56 288.755 284.56C289.209 284.56 289.589 284.7 289.895 284.98C290.202 285.247 290.355 285.587 290.355 286C290.355 286.44 290.202 286.813 289.895 287.12C289.602 287.413 289.222 287.56 288.755 287.56Z" fill="#FF725E"/>
<path fill-rule="evenodd" clip-rule="evenodd" d="M88.7922 206.017C115.582 206.609 137.963 224.018 154.115 245.1C169.662 265.392 177.464 290.346 172.526 315.307C167.38 341.317 152.962 366.896 128.052 376.846C104.425 386.283 79.9042 372.589 57.063 361.427C34.7054 350.501 10.4136 339.267 3.04965 315.76C-4.86857 290.482 3.31795 263.087 19.6923 242.13C36.4302 220.707 61.3723 205.412 88.7922 206.017Z" fill="white"/>
<path d="M57.44 275.92C62.048 275.92 65.616 277.36 68.144 280.24C70.704 283.12 71.984 287.248 71.984 292.624C71.984 296.4 71.296 299.632 69.92 302.32C68.544 304.976 66.608 307.008 64.112 308.416C61.648 309.792 58.784 310.48 55.52 310.48C53.792 310.48 52.16 310.304 50.624 309.952C49.12 309.568 47.808 309.024 46.688 308.32L48.992 303.616C50.656 304.704 52.784 305.248 55.376 305.248C58.608 305.248 61.136 304.256 62.96 302.272C64.784 300.288 65.696 297.424 65.696 293.68V293.632C64.704 294.784 63.44 295.664 61.904 296.272C60.368 296.848 58.64 297.136 56.72 297.136C54.512 297.136 52.528 296.72 50.768 295.888C49.008 295.024 47.632 293.808 46.64 292.24C45.648 290.672 45.152 288.864 45.152 286.816C45.152 284.64 45.696 282.736 46.784 281.104C47.872 279.44 49.344 278.16 51.2 277.264C53.056 276.368 55.136 275.92 57.44 275.92ZM57.92 292.24C59.936 292.24 61.568 291.696 62.816 290.608C64.096 289.52 64.736 288.144 64.736 286.48C64.736 284.848 64.112 283.504 62.864 282.448C61.648 281.36 59.952 280.816 57.776 280.816C55.824 280.816 54.24 281.344 53.024 282.4C51.808 283.424 51.2 284.8 51.2 286.528C51.2 288.288 51.808 289.68 53.024 290.704C54.24 291.728 55.872 292.24 57.92 292.24ZM86.7178 289.408C91.4538 289.408 94.9578 290.336 97.2298 292.192C99.5018 294.016 100.638 296.512 100.638 299.68C100.638 301.696 100.142 303.52 99.1498 305.152C98.1578 306.784 96.6698 308.08 94.6858 309.04C92.7018 310 90.2538 310.48 87.3418 310.48C84.9418 310.48 82.6218 310.144 80.3818 309.472C78.1418 308.768 76.2538 307.808 74.7178 306.592L77.3578 301.744C78.6058 302.768 80.0938 303.584 81.8218 304.192C83.5818 304.768 85.3898 305.056 87.2458 305.056C89.4538 305.056 91.1818 304.608 92.4298 303.712C93.7098 302.784 94.3498 301.52 94.3498 299.92C94.3498 298.192 93.6618 296.896 92.2858 296.032C90.9418 295.136 88.6218 294.688 85.3258 294.688H77.2138L78.9418 276.4H98.6698V281.632H84.2218L83.5018 289.408H86.7178ZM118.307 290.272C121.411 290.656 123.779 291.712 125.411 293.44C127.043 295.168 127.859 297.328 127.859 299.92C127.859 301.872 127.363 303.648 126.371 305.248C125.379 306.848 123.875 308.128 121.859 309.088C119.875 310.016 117.443 310.48 114.563 310.48C112.163 310.48 109.843 310.144 107.603 309.472C105.395 308.768 103.507 307.808 101.939 306.592L104.627 301.744C105.843 302.768 107.315 303.584 109.043 304.192C110.803 304.768 112.611 305.056 114.467 305.056C116.675 305.056 118.403 304.608 119.651 303.712C120.931 302.784 121.571 301.536 121.571 299.968C121.571 298.4 120.963 297.184 119.747 296.32C118.563 295.424 116.739 294.976 114.275 294.976H111.203V290.704L118.835 281.632H103.571V276.4H126.467V280.576L118.307 290.272Z" fill="#0B6D62"/>
</svg>
